<?xml version="1.0" encoding="UTF-8"?>
<svg id="Layer_2" data-name="Layer 2" xmlns="http://www.w3.org/2000/svg" viewBox="0 0 310.66 334.34">
  <defs>
    <style>
      .cls-1 {
        fill: #fff;
      }
    </style>
  </defs>
  <g id="Layer_1-2" data-name="Layer 1">
    <path class="cls-1" d="M200.27,15.55c.31-.03.53-.28.87-.25,5.72.65,11.36.78,17.14.65.9,0,6-1.06,5.97.19,0,.22-3.08,1.93-3.61,2.21-7.44,3.7-16.08,4.45-24.27,5.16-5.13,7.16-10.36,14.34-16.67,20.47-2.15,2.08-7.5,5.79-8.87,7.78-1.62,2.33-3.14,6.78-4.26,9.49,6.22-6.94,14.87-14.12,24.92-12.75,2.58.34,5.2,2.58,5.63,5.23,1.15,7.28-7.25,20.41-9.83,27.66-3.11,8.77,1.28,9.08,7.16,4.08,7.53-6.44,6.22-12.63,10.64-20.35,5.01-8.74,16.86-16.49,27.1-16.67,6.88-.12,12.13,4.42,9.55,11.51-3.11,8.59-13.41,14.19-22.06,15.49-1.4.22-6.69.22-7.44.68-1.24.75-1.68,5.85-1.46,7.28,1.52,8.93,14.34,5.04,19.63,1.99,1.65-.96,5.2-4.23,6.25-4.64.65-.25,1.28.28,1.93.22.19,1.21-.96,1.96-1.74,2.71-7.4,6.78-25.23,11.67-33.1,3.7-1.65-1.68-2.02-3.92-3.45-5.63-3.45,6.56-12.23,11.79-19.63,8.99-4.57-1.74-5.2-5.44-4.17-9.77,1.9-8.06,7.65-16.46,9.83-24.61.78-6.47-6.53-3.2-9.61-1.09-11.32,7.81-18.29,21.68-22.49,34.41-3.64,1.06-7.22.53-10.86-.22l12.01-28.06c-3.27.28-7.22,2.96-10.36,3.2-.81.06-1.31-.12-1.24-1.09,5.04-1.8,10.24-4.42,14.5-7.78,2.71-6.25,5.2-12.57,7.9-18.82.75-1.77,7.25-14.99,6.66-15.62-10.76-1.77-21.56-3.95-32.39-5.35-10.05-1.31-22.12-3.24-31.95-.72-11.76,3.02-19.26,13.75-15.37,25.76,2.64-.12,5.26-.5,7.9-.34.72.03,4.82.47,4.82,1,0,.81-1.15.31-1.46.31-3.3-.16-7.19-.31-10.14,1.24,2.55,5.07,7.56,8.03,13.07,8.99l8.62-.09c-8.96,3.42-18.67,0-23.86-7.9-19.07,5.82-29.34,39.26-7.37,48.03,27.94,11.17,40.19-29.87,50.12-47.57,4.85-8.68,12.85-19.35,21.99-23.67,1.09-.53,2.52-.78,1.62.84s-3.3,3.95-4.57,5.88c-15.18,22.8-18.54,66.67-54.38,68.72-33.13,1.9-42.46-35.71-15.46-51.39,1.03-.59,6.32-2.86,6.53-3.17.62-1.03-.5-3.17-.59-4.45-1.34-17.11,12.07-28.53,27.78-31.45,20.91-3.89,41.25,3.76,61.78,6.13,3.42-6.13,10.73-12.79,18.26-12.04,8.06.81,3.98,10.7,2.52,15.49,0,0-.03,0-.03,0ZM197.91,14.71c.68-2.46,3.55-8.06,1.62-10.24-2.86-3.24-9.49,6.63-10.48,8.93,1.46.25,7.96,1.87,8.84,1.31h.03ZM192.93,23.67c-.34-.47-8.34-.84-9.3.16l-9.64,21.9c.5.62,9.52-9.21,10.27-10.05,1.09-1.24,9.3-11.17,8.71-12.01h-.03ZM237.32,51.67c-.96-1.03-2.86-1.34-4.23-1.18-9.27,1-18.2,15.62-20.44,23.89,5.41-.28,10.42-1.99,14.84-5.1,3.76-2.68,14.4-12.69,9.83-17.61Z"/>
    <g>
      <path class="cls-1" d="M217.27,281.44c-2.91,10.06-9.79,19.98-12.44,30.04-2.65,10.06,5.16,8.34,10.85,4.37s2.65-4.1,3.18-9c1.32-14.55,17.86-38.9,27.79-49.75,9.92-10.85,12.31-12.44,18-8.47,4.23,2.91,0,10.59-1.85,14.03-8.6,16.67-21.96,32.29-34.4,46.05-1.72,3.31-.66,8.87,3.57,9.26s12.57-7.01,16.27-10.98c8.73-9.39,16.01-20.11,25.14-29.11,2.12,9.26,5.82,20.24,4.37,29.9-1.46,9.66-7.94,12.04-14.95,12.97,1.46.93,4.1,1.19,5.82,1.32,7.28.53,15.61-1.06,22.1-4.37,18.13-9.26,21.96-34.93,9-50.28-.4-1.19,3.18,1.98,3.44,2.25,6.48,6.75,8.6,17.73,7.01,26.73-3.04,16.94-19.19,26.99-35.59,27.92-9.26.53-23.95-2.25-24.74-13.63,3.97-.53,2.65,1.19,3.57,3.84s3.84,4.23,7.15,3.18c8.87-2.91,7.54-21.44,5.82-28.58-5.03,5.42-9.39,11.25-14.29,16.67-4.9,5.42-12.7,14.29-20.38,15.08-4.63.4-10.59-.66-12.04-5.69-6.88,6.75-22.49,10.72-24.21-2.65-7.15,10.59-25.54,15.61-28.71-.79-4.1,6.09-9.92,11.64-18,10.06s-4.5-2.51-4.9-5.03c-.93-6.75,5.42-15.88,7.94-22.23s4.5-12.57-4.1-9.39c-8.6,3.18-11.91,8.73-14.42,12.04-5.69,7.15-8.47,16.67-12.7,24.74h-9.79s-.53-.4-.4-.79c.53-2.25,3.44-5.29,3.57-7.94-4.37,5.42-14.29,13.1-21.44,8.73-7.15-4.37-3.7-9.53-1.98-14.29,2.65-7.54,6.88-14.82,9.39-22.36l.66-.93h10.06c-3.18,9.26-8.47,18.26-11.78,27.39-3.31,9.13-3.31,8.6,2.12,8.2s11.91-8.87,14.69-12.57c5.42-7.67,9.39-16.54,13.23-25.14,3.44-.13,6.75-.13,10.19.26.4.4-3.31,7.41-3.7,8.6s-.79.93-.26,1.19c5.29-5.69,12.31-11.38,20.38-11.78,18.26-.79,3.04,21.57-.4,29.11-3.44,7.54-3.7,7.41-2.25,9s3.31,0,4.37-.53c2.91-1.46,8.73-7.54,10.06-10.45s1.06-4.5,1.98-6.75c3.04-7.54,13.1-18.26,21.04-20.51,7.94-2.25,11.11-1.85,14.03,2.38l1.72,3.04,1.85-4.9h9.79l-.4.53h0ZM229.31,304.46c9.53-10.32,18.52-21.3,25.8-33.21,7.28-11.91,8.2-13.36,8.87-18.39.66-5.03-3.57,0-4.63,1.06-4.63,5.03-9.92,12.97-13.76,18.79-6.48,9.79-12.7,20.51-16.27,31.89h0v-.13ZM176.92,318.75c1.85,1.72,5.82.66,7.94-.26,6.48-2.78,11.38-10.85,14.29-17.07s6.48-14.42,1.46-17.86c-6.22-4.1-13.36,5.95-16.41,10.45-3.04,4.5-3.7,6.22-5.03,9.26s-5.29,12.57-2.25,15.48h0Z"/>
      <g>
        <path class="cls-1" d="M166.2,249.81c0,.93-.79,1.32-1.32,1.85-22.23,16.8-72.77.4-99.24-1.06-26.46-1.46-25.14,1.59-30.43,12.7-5.29,11.11-2.65,9-1.19,10.19s3.97.53,5.16.79c1.85.53,3.84,1.19,5.42,2.51-3.44,0-6.75-2.65-10.59-1.46,1.32,1.59,2.25,3.84,3.7,5.29s4.37,2.51,6.35,3.84,1.06.4.93,1.19c-5.82-.93-10.45-5.56-13.1-10.59-15.61.4-26.86,14.42-28.05,29.37-1.32,17.6,14.69,30.3,31.62,25.14,16.94-5.16,28.18-30.3,37.18-46.84,1.59-.4,11.38-2.51,12.04-1.98,0,.79-.26,1.59-.53,2.38-3.44,10.32-11.51,26.46-18.66,34.67-11.91,13.63-32.55,21.83-49.62,12.57-28.98-15.75-15.08-57.03,15.75-57.16-2.12-12.7,7.41-24.35,18.52-29.24,19.32-8.47,48.43,0,68.67,3.44,15.61,2.65,31.49,5.95,47.24,2.38h.13Z"/>
        <path class="cls-1" d="M105.07,276.14c-1.72,0-2.91,1.98-3.97,2.65-2.12,1.06-11.11.26-14.29.4-7.15.53-15.75,2.91-22.63,5.42-12.31,4.5-25.67,13.5-39.43,12.04-13.76-1.46-2.91-.79-3.97-1.72,2.25,0,4.23.66,6.62.53,12.83-.53,29.24-11.51,41.42-16.41,10.32-4.23,20.77-6.48,31.89-7.81.4,0,4.5,4.63,4.37,4.9h0Z"/>
        <path class="cls-1" d="M126.9,271.65c2.65.53,5.42.13,8.07.4s2.91.26,2.12,1.06-5.42,1.59-6.35,1.72c-1.72.4-6.48.79-7.67,1.46s-5.56,9.13-6.22,9.26c-1.32.26-3.7-5.16-4.9-5.29l-14.95,3.44,10.98-7.15c.26-.4-3.31-4.23-3.57-4.9s0-.66.4-.66c2.12-.53,7.01.53,9.79.4,5.29-.4,11.25-5.42,15.88-7.94.79.66.4.4,0,.93-.4.79-4.23,7.01-3.84,7.41h0l.26-.13Z"/>
        <path class="cls-1" d="M98.98,256.96c.66.79-4.1,5.69-4.9,6.62-1.06,1.46-3.44,6.09-4.37,6.88-1.19,1.19-8.87,2.25-10.85,3.18-.4-.4,2.12-2.65,2.38-3.04,5.29-5.03,10.98-10.45,17.6-13.63h.13Z"/>
      </g>
    </g>
    <g>
      <path class="cls-1" d="M122.85,164.35h-.4s-.06.09-.09.13l.49-.13Z"/>
      <path class="cls-1" d="M129.97,98.84c-14.78-4.75-29-2.09-36.4,6.5-.76.88-9.23,11.04-4.9,22.22,3.03,7.82,11.19,13.2,20.73,13.56l9.57-13.67c-5.45.93-10.42-1.05-12.3-4.67-1.43-2.74-.73-5.75-.68-5.92.79-3.21,3.23-4.86,3.99-5.35,3.23-2.11,7.96-2.39,11.28,0,2.2,1.58,3.02,3.78,3.42,4.9.52,1.46,1.41,5.16-1.14,11.28-3.03,7.27-12.08,20.66-25.63,36.68h24.55c11.93-17.16,20.36-31.1,21.98-38.79.81-3.83.77-7.23.26-10.18-1.37-7.81-7.17-14.12-14.71-16.54Z"/>
      <path class="cls-1" d="M182.35,164.48l.49-.13h-.4s-.06.09-.09.13Z"/>
      <path class="cls-1" d="M204.69,115.38c-1.37-7.81-7.17-14.12-14.71-16.54-14.78-4.75-29-2.09-36.4,6.5-.76.88-9.23,11.04-4.9,22.22,3.03,7.82,11.19,13.2,20.73,13.56l9.57-13.67c-5.45.93-10.42-1.05-12.3-4.67-1.43-2.74-.73-5.75-.68-5.92.79-3.21,3.23-4.86,3.99-5.35,3.23-2.11,7.96-2.39,11.28,0,2.2,1.58,3.02,3.78,3.42,4.9.52,1.46,1.41,5.16-1.14,11.28-3.03,7.27-12.08,20.66-25.63,36.68h24.55c11.93-17.16,20.36-31.1,21.98-38.79.81-3.83.77-7.23.26-10.18Z"/>
      <polygon class="cls-1" points="53.35 103.8 53.35 121.94 64.06 114.05 61.78 163.17 82.75 163.17 85.94 96.5 65.66 96.5 53.35 103.8"/>
      <polygon class="cls-1" points="212.35 103.8 212.35 121.94 223.06 114.05 220.78 163.17 241.75 163.17 244.94 96.5 224.66 96.5 212.35 103.8"/>
    </g>
    <g>
      <path class="cls-1" d="M164.28,214.26c1.02-.8,1.63-1.87,1.84-3.26.23-1.43-.21-2.08-.61-2.48-.3-.3-1.38-1.01-4.86-1.01h-7.32l-1.26,8h6.69c2.56,0,4.46-.43,5.51-1.26Z"/>
      <path class="cls-1" d="M163.06,184.6h-6.13l-1.13,7.22h5.35c2.86,0,4.17-.57,4.77-1.04.84-.67,1.35-1.65,1.56-3.02.25-1.6-.27-2.15-.44-2.33-.19-.19-1.02-.83-3.97-.83Z"/>
      <polygon class="cls-1" points="217.29 205.48 224.38 205.48 222.71 193.44 217.29 205.48"/>
      <polygon class="cls-1" points="108.25 168.17 103.75 196.8 89.47 168.17 69.6 168.17 59.46 232.68 80.61 232.68 85.07 204.29 99.27 232.68 119.3 232.68 129.43 168.17 108.25 168.17"/>
      <path class="cls-1" d="M187.95,213.75c.68-4.33.09-8.03-1.74-11-1.11-1.8-2.72-3.28-4.81-4.43,1.15-.71,2.16-1.5,3.03-2.38,2.85-2.86,4.61-6.34,5.24-10.33.77-4.88-.35-9.06-3.32-12.42-2.95-3.34-7.6-5.03-13.8-5.03h-35.41l-10.14,64.51h33.46c1.43,0,4.2-.27,8.45-.84,3.4-.45,5.97-1.17,7.86-2.21,2.93-1.6,5.41-3.8,7.38-6.54,1.98-2.75,3.25-5.89,3.8-9.33ZM167.48,187.76c-.22,1.37-.73,2.35-1.56,3.02-.59.47-1.9,1.04-4.77,1.04h-5.35l1.13-7.22h6.13c2.95,0,3.79.63,3.97.83.17.18.69.73.44,2.33ZM153.34,207.51h7.32c3.47,0,4.55.71,4.86,1.01.4.4.84,1.05.61,2.48-.22,1.39-.82,2.45-1.84,3.26-1.05.82-2.95,1.26-5.51,1.26h-6.69l1.26-8Z"/>
      <path class="cls-1" d="M237.98,168.17h-22.58l-33.5,64.51h23.17l4.4-9.95h17.17l1.34,9.95h23.23l-13.22-64.51ZM224.38,205.48h-7.09l5.42-12.04,1.67,12.04Z"/>
    </g>
  </g>
</svg>