<?xml version="1.0" encoding="UTF-8"?>
<svg id="Layer_2" data-name="Layer 2" xmlns="http://www.w3.org/2000/svg" viewBox="0 0 310.66 334.34">
  <defs>
    <style>
      .cls-1 {
        fill: #fff;
      }

      .cls-2 {
        fill: none;
      }
    </style>
  </defs>
  <g id="Layer_1-2" data-name="Layer 1">
    <path class="cls-2" d="M237.32,51.67c-.96-1.03-2.86-1.34-4.23-1.18-9.27,1-18.2,15.62-20.44,23.89,5.41-.28,10.42-1.99,14.84-5.1,3.76-2.68,14.4-12.69,9.83-17.61Z"/>
    <path class="cls-2" d="M166.12,211c.23-1.43-.21-2.08-.61-2.48-.3-.3-1.38-1.01-4.86-1.01h-7.32l-1.26,8h6.69c2.56,0,4.46-.43,5.51-1.26,1.02-.8,1.63-1.87,1.84-3.26Z"/>
    <path class="cls-2" d="M197.88,14.71h.03c.68-2.46,3.55-8.06,1.62-10.24-2.86-3.24-9.49,6.63-10.48,8.93,1.46.25,7.96,1.87,8.84,1.31Z"/>
    <polygon class="cls-2" points="222.71 193.44 217.29 205.48 224.38 205.48 222.71 193.44"/>
    <path class="cls-2" d="M184.25,35.68c1.09-1.24,9.3-11.17,8.71-12.01h-.03c-.34-.47-8.34-.84-9.3.16l-9.64,21.9c.5.62,9.52-9.21,10.27-10.05Z"/>
    <path class="cls-2" d="M165.92,190.78c.84-.67,1.35-1.65,1.56-3.02.25-1.6-.27-2.15-.44-2.33-.19-.19-1.02-.83-3.97-.83h-6.13l-1.13,7.22h5.35c2.86,0,4.17-.57,4.77-1.04Z"/>
    <path class="cls-2" d="M263.98,252.86c.66-5.03-3.57,0-4.63,1.06-4.63,5.03-9.92,12.97-13.76,18.79-6.44,9.73-12.62,20.38-16.21,31.68,9.5-10.3,18.47-21.26,25.73-33.14,7.28-11.91,8.2-13.36,8.87-18.39Z"/>
    <path class="cls-2" d="M200.6,283.55c-6.22-4.1-13.36,5.95-16.41,10.45-3.04,4.5-3.7,6.22-5.03,9.26-1.32,3.04-5.29,12.57-2.25,15.48,1.85,1.72,5.82.66,7.94-.26,6.48-2.78,11.38-10.85,14.29-17.07s6.48-14.42,1.46-17.86Z"/>
    <path class="cls-1" d="M99.48,96.44c35.84-2.05,39.2-45.92,54.38-68.72,1.28-1.93,3.67-4.26,4.57-5.88.9-1.62-.53-1.37-1.62-.84-9.15,4.32-17.14,14.99-21.99,23.67-9.92,17.7-22.18,58.73-50.12,47.57-21.96-8.77-11.7-42.22,7.37-48.03,5.2,7.9,14.9,11.32,23.86,7.9l-8.62.09c-5.51-.96-10.52-3.92-13.07-8.99,2.96-1.56,6.84-1.4,10.14-1.24.31,0,1.46.5,1.46-.31,0-.53-4.11-.96-4.82-1-2.64-.16-5.26.22-7.9.34-3.89-12.01,3.61-22.74,15.37-25.76,9.83-2.52,21.9-.59,31.95.72,10.83,1.4,21.62,3.58,32.39,5.35.59.62-5.91,13.84-6.66,15.62-2.71,6.25-5.2,12.57-7.9,18.82-4.26,3.36-9.46,5.97-14.5,7.78-.06.96.44,1.15,1.24,1.09,3.14-.25,7.09-2.92,10.36-3.2l-12.01,28.06c3.64.75,7.22,1.28,10.86.22,4.2-12.72,11.17-26.6,22.49-34.41,3.08-2.12,10.39-5.38,9.61,1.09-2.18,8.15-7.93,16.55-9.83,24.61-1.03,4.32-.4,8.03,4.17,9.77,7.4,2.8,16.18-2.43,19.63-8.99,1.43,1.71,1.8,3.95,3.45,5.63,7.87,7.96,25.7,3.08,33.1-3.7.78-.75,1.93-1.49,1.74-2.71-.65.06-1.28-.47-1.93-.22-1.06.4-4.6,3.67-6.25,4.64-5.29,3.05-18.11,6.94-19.63-1.99-.22-1.43.22-6.53,1.46-7.28.75-.47,6.04-.47,7.44-.68,8.65-1.31,18.95-6.91,22.06-15.49,2.58-7.09-2.68-11.64-9.55-11.51-10.24.19-22.09,7.93-27.1,16.67-4.42,7.72-3.11,13.91-10.64,20.35-5.88,5.01-10.27,4.7-7.16-4.08,2.58-7.25,10.98-20.38,9.83-27.66-.44-2.64-3.05-4.88-5.63-5.23-10.05-1.37-18.7,5.82-24.92,12.75,1.12-2.71,2.64-7.16,4.26-9.49,1.37-1.99,6.72-5.69,8.87-7.78,6.32-6.13,11.54-13.31,16.67-20.47,8.18-.72,16.83-1.46,24.27-5.16.53-.28,3.61-1.99,3.61-2.21.03-1.24-5.07-.19-5.97-.19-5.79.12-11.42,0-17.14-.65-.33-.03-.54.19-.84.24,1.46-4.79,5.53-14.68-2.52-15.48-7.53-.75-14.84,5.91-18.26,12.04-20.53-2.36-40.88-10.02-61.78-6.13-15.71,2.92-29.12,14.34-27.78,31.45.09,1.28,1.21,3.42.59,4.45-.22.31-5.51,2.58-6.53,3.17-27,15.68-17.67,53.29,15.46,51.39ZM233.09,50.49c1.37-.16,3.27.16,4.23,1.18,4.57,4.92-6.07,14.93-9.83,17.61-4.42,3.11-9.43,4.82-14.84,5.1,2.24-8.28,11.17-22.9,20.44-23.89ZM199.53,4.48c1.93,2.18-.93,7.78-1.62,10.24h-.03c-.87.56-7.37-1.06-8.84-1.31,1-2.3,7.62-12.16,10.48-8.93ZM183.63,23.83c.96-1,8.96-.62,9.3-.16h.03c.59.84-7.62,10.76-8.71,12.01-.75.84-9.77,10.67-10.27,10.05l9.64-21.9Z"/>
    <path class="cls-1" d="M299.71,267.41c12.97,15.35,9.13,41.02-9,50.28-6.48,3.31-14.82,4.9-22.1,4.37-1.72-.13-4.37-.4-5.82-1.32,7.01-.93,13.5-3.31,14.95-12.97,1.46-9.66-2.25-20.64-4.37-29.9-9.13,9-16.41,19.72-25.14,29.11-3.7,3.97-12.04,11.38-16.27,10.98-4.23-.4-5.29-5.95-3.57-9.26,12.44-13.76,25.8-29.37,34.4-46.05,1.85-3.44,6.09-11.11,1.85-14.03-5.69-3.97-8.07-2.38-18,8.47s-26.46,35.2-27.79,49.75c-.53,4.9,2.51,5.03-3.18,9-5.69,3.97-13.5,5.69-10.85-4.37,2.65-10.06,9.53-19.98,12.44-30.04l.4-.53h-9.79l-1.85,4.9-1.72-3.04c-2.91-4.23-6.09-4.63-14.03-2.38s-18,12.97-21.04,20.51c-.93,2.25-.66,3.84-1.98,6.75-1.32,2.91-7.15,9-10.06,10.45-1.06.53-2.91,2.12-4.37.53-1.46-1.59-1.19-1.46,2.25-9s18.66-29.9.4-29.11c-8.07.4-15.08,6.09-20.38,11.78-.53-.26-.13,0,.26-1.19.4-1.19,4.1-8.2,3.7-8.6-3.44-.4-6.75-.4-10.19-.26-3.84,8.6-7.81,17.47-13.23,25.14-2.78,3.7-9.26,12.17-14.69,12.57-5.42.4-5.42.93-2.12-8.2,3.31-9.13,8.6-18.13,11.78-27.39h-10.06l-.66.93c-2.51,7.54-6.75,14.82-9.39,22.36-1.72,4.76-5.16,9.92,1.98,14.29s17.07-3.31,21.44-8.73c-.13,2.65-3.04,5.69-3.57,7.94-.13.4.4.79.4.79h9.79c4.23-8.07,7.01-17.6,12.7-24.74,2.51-3.31,5.82-8.87,14.42-12.04s6.62,3.04,4.1,9.39c-2.51,6.35-8.87,15.48-7.94,22.23.4,2.51-3.18,3.44,4.9,5.03,8.07,1.59,13.89-3.97,18-10.06,3.18,16.41,21.57,11.38,28.71.79,1.72,13.36,17.33,9.39,24.21,2.65,1.46,5.03,7.41,6.09,12.04,5.69,7.67-.79,15.48-9.66,20.38-15.08,4.9-5.42,9.26-11.25,14.29-16.67,1.72,7.15,3.04,25.67-5.82,28.58-3.31,1.06-6.22-.53-7.15-3.18-.93-2.65.4-4.37-3.57-3.84.79,11.38,15.48,14.16,24.74,13.63,16.41-.93,32.55-10.98,35.59-27.92,1.59-9-.53-19.98-7.01-26.73-.26-.26-3.84-3.44-3.44-2.25ZM245.59,272.7c3.84-5.82,9.13-13.76,13.76-18.79,1.06-1.06,5.29-6.09,4.63-1.06-.66,5.03-1.59,6.48-8.87,18.39-7.26,11.88-16.23,22.84-25.73,33.14,3.58-11.3,9.76-21.95,16.21-31.68ZM199.14,301.42c-2.91,6.22-7.81,14.29-14.29,17.07-2.12.93-6.09,1.98-7.94.26-3.04-2.91.93-12.44,2.25-15.48,1.32-3.04,1.98-4.76,5.03-9.26,3.04-4.5,10.19-14.55,16.41-10.45,5.03,3.44,1.46,11.64-1.46,17.86Z"/>
    <path class="cls-1" d="M72.65,282.76c-9,16.54-20.24,41.68-37.18,46.84s-32.95-7.54-31.62-25.14c1.19-14.95,12.44-28.98,28.05-29.37,2.65,5.03,7.28,9.66,13.1,10.59.13-.79,1.06.13-.93-1.19-1.98-1.32-4.9-2.38-6.35-3.84s-2.38-3.7-3.7-5.29c3.84-1.19,7.15,1.46,10.59,1.46-1.59-1.32-3.57-1.98-5.42-2.51-1.19-.26-3.7.4-5.16-.79s-4.1.93,1.19-10.19c5.29-11.11,3.97-14.16,30.43-12.7,26.46,1.46,77.01,17.86,99.24,1.06.53-.53,1.32-.93,1.32-1.85h-.13c-15.75,3.57-31.62.26-47.24-2.38-20.24-3.44-49.35-11.91-68.67-3.44-11.11,4.9-20.64,16.54-18.52,29.24-30.83.13-44.72,41.42-15.75,57.16,17.07,9.26,37.71,1.06,49.62-12.57,7.15-8.2,15.22-24.35,18.66-34.67.26-.79.53-1.59.53-2.38-.66-.53-10.45,1.59-12.04,1.98Z"/>
    <path class="cls-1" d="M101.1,278.79c1.06-.66,2.25-2.65,3.97-2.65.13-.26-3.97-4.9-4.37-4.9-11.11,1.32-21.57,3.57-31.89,7.81-12.17,4.9-28.58,15.88-41.42,16.41-2.38.13-4.37-.53-6.62-.53,1.06.93-9.79.26,3.97,1.72,13.76,1.46,27.12-7.54,39.43-12.04,6.88-2.51,15.48-4.9,22.63-5.43,3.18-.13,12.17.66,14.29-.4Z"/>
    <path class="cls-1" d="M97,283.69l14.95-3.44c1.19.13,3.57,5.56,4.9,5.29.66-.13,5.03-8.6,6.22-9.26,1.19-.66,5.95-1.06,7.67-1.46.93-.13,5.56-.93,6.35-1.72s.53-.79-2.12-1.06c-2.65-.26-5.43.13-8.07-.4l-.26.13c-.4-.4,3.44-6.62,3.84-7.41.4-.53.79-.26,0-.93-4.63,2.51-10.59,7.54-15.88,7.94-2.78.13-7.67-.93-9.79-.4-.4,0-.66,0-.4.66s3.84,4.5,3.57,4.9l-10.98,7.15Z"/>
    <path class="cls-1" d="M81.25,270.59c-.26.4-2.78,2.65-2.38,3.04,1.98-.93,9.66-1.98,10.85-3.18.93-.79,3.31-5.42,4.37-6.88.79-.93,5.56-5.82,4.9-6.62h-.13c-6.62,3.18-12.31,8.6-17.6,13.63Z"/>
    <path class="cls-1" d="M122.85,164.35h-.4s-.06.09-.09.13l.49-.13Z"/>
    <path class="cls-1" d="M144.69,115.38c-1.37-7.81-7.17-14.12-14.71-16.54-14.78-4.75-29-2.09-36.4,6.5-.76.88-9.23,11.04-4.9,22.22,3.03,7.82,11.19,13.2,20.73,13.56l9.57-13.67c-5.45.93-10.42-1.05-12.3-4.67-1.43-2.74-.73-5.75-.68-5.92.79-3.21,3.23-4.86,3.99-5.35,3.23-2.11,7.96-2.39,11.28,0,2.2,1.58,3.02,3.78,3.42,4.9.52,1.46,1.41,5.16-1.14,11.28-3.03,7.27-12.08,20.66-25.63,36.68h24.55c11.93-17.16,20.36-31.1,21.98-38.79.81-3.83.77-7.23.26-10.18Z"/>
    <path class="cls-1" d="M182.85,164.35h-.4s-.06.09-.09.13l.49-.13Z"/>
    <path class="cls-1" d="M204.69,115.38c-1.37-7.81-7.17-14.12-14.71-16.54-14.78-4.75-29-2.09-36.4,6.5-.76.88-9.23,11.04-4.9,22.22,3.03,7.82,11.19,13.2,20.73,13.56l9.57-13.67c-5.45.93-10.42-1.05-12.3-4.67-1.43-2.74-.73-5.75-.68-5.92.79-3.21,3.23-4.86,3.99-5.35,3.23-2.11,7.96-2.39,11.28,0,2.2,1.58,3.02,3.78,3.42,4.9.52,1.46,1.41,5.16-1.14,11.28-3.03,7.27-12.08,20.66-25.63,36.68h24.55c11.93-17.16,20.36-31.1,21.98-38.79.81-3.83.77-7.23.26-10.18Z"/>
    <path class="cls-1" d="M208.75,98.49l-1.37,15.95c4.46-2.75,15.53-5.71,22.88-2.59,3.76,1.59,4.98,6.36,2.47,9.57-6.11,7.83-21.9,19.66-29.68,29.02v14.26h51.72v-14.26h-25.06c7.93-6.48,20.88-16.24,26.16-28.22,3.07-6.97,1.16-15.19-5.01-19.66-10.58-7.66-29.05-6.88-42.11-4.07Z"/>
    <polygon class="cls-1" points="61.78 163.17 82.75 163.17 85.94 96.5 65.66 96.5 53.35 103.8 53.35 121.94 64.06 114.05 61.78 163.17"/>
    <polygon class="cls-1" points="59.46 232.68 80.61 232.68 85.07 204.29 99.27 232.68 119.3 232.68 129.43 168.17 108.25 168.17 103.75 196.8 89.47 168.17 69.6 168.17 59.46 232.68"/>
    <path class="cls-1" d="M168.92,231.84c3.4-.45,5.97-1.17,7.86-2.21,2.93-1.6,5.41-3.8,7.38-6.54,1.98-2.75,3.25-5.89,3.8-9.33.68-4.33.09-8.03-1.74-11-1.11-1.8-2.72-3.28-4.81-4.43,1.15-.71,2.16-1.5,3.03-2.38,2.85-2.86,4.61-6.34,5.24-10.33.77-4.88-.35-9.06-3.32-12.42-2.95-3.34-7.6-5.03-13.8-5.03h-35.41l-10.14,64.51h33.46c1.43,0,4.2-.27,8.45-.84ZM156.94,184.6h6.13c2.95,0,3.79.63,3.97.83.17.18.69.73.44,2.33-.22,1.37-.73,2.35-1.56,3.02-.59.47-1.9,1.04-4.77,1.04h-5.35l1.13-7.22ZM152.08,215.51l1.26-8h7.32c3.47,0,4.55.71,4.86,1.01.4.4.84,1.05.61,2.48-.22,1.39-.82,2.45-1.84,3.26-1.05.82-2.95,1.26-5.51,1.26h-6.69Z"/>
    <path class="cls-1" d="M209.46,222.73h17.17l1.34,9.95h23.23l-13.22-64.51h-22.58l-33.5,64.51h23.17l4.4-9.95ZM222.71,193.44l1.67,12.04h-7.09l5.42-12.04Z"/>
  </g>
</svg>