<?xml version="1.0" encoding="UTF-8"?>
<svg id="Layer_2" data-name="Layer 2" xmlns="http://www.w3.org/2000/svg" viewBox="0 0 324.17 33.04">
  <defs>
    <style>
      .cls-1 {
        fill: #fff;
      }
    </style>
  </defs>
  <g id="Layer_1-2" data-name="Layer 1">
    <path class="cls-1" d="M119.26,8.57c.86-1.3,8.32-1.08,10.12-.9,7.11.71,8.48,7.76,2.43,11.25,6.02,2.61,3.87,9.73-1.76,11.48-1.95.61-11.84,1.15-12.74-.29-.15-.24-.7-5.47-.5-5.68,2.04.43,10.6,2.26,10.6-1.1,0-2.58-5.81-1.97-7.52-1.98-.06-1.13.02-4.9.86-5.55.25-.2,5.5,1.06,6.16-.9,1.19-3.52-6.99-1.21-8.78-1.94"/>
    <path class="cls-1" d="M100.67,30.89c-.09-.08.53-.81.62-.93,2.78-3.42,9-10.45,8.44-15.05s-6.67-3.03-6.05.95c.33,2.1,2.39,2.34,4.08,1.71l-.02.29-3.14,4.7c-3.51.75-7.63-1.7-8.02-5.44-1.35-12.91,22.04-13.58,20.11-.02-.71,5.01-4.53,9.96-7.56,13.84-2.82.15-5.65.06-8.46-.06h0Z"/>
    <path class="cls-1" d="M88.46,30.86c-1.34.07-2.69-.02-4.03.01-.62.02-1.35.12-1.98.14-.84.02-1.72.03-2.56-.07,1.58-2.18,3.36-4.21,4.88-6.44,1.7-2.5,5.55-8.3,3.27-11.17-1.63-2.05-5.01-.69-5.28,1.7s1.77,3.59,3.97,2.79c.15.2-.6,1.32-.74,1.56-.29.47-2.31,3.44-2.58,3.52-.99.29-3.57-.5-4.51-1.04-3.32-1.91-3.99-5.71-2.52-9.09,3.11-7.15,17.7-7.43,19.37.7,1.31,6.39-4.08,12.46-7.3,17.4h.01Z"/>
    <path class="cls-1" d="M63.34,11.17c.02-.12.17-.52.25-.62l3.7-2.4c2.34-.07,4.67.04,7-.15l-.75,23.02h-7.47l.75-16.67-3.48,1.99c.17-1.58-.23-3.64,0-5.16h0Z"/>
    <path class="cls-1" d="M42.44,5c.1-.01.17-.09.28-.08,1.84.21,3.65.25,5.51.21.29,0,1.93-.34,1.92.06,0,.07-.99.62-1.16.71-2.39,1.19-5.17,1.43-7.8,1.66-1.65,2.3-3.33,4.61-5.36,6.58-.69.67-2.41,1.86-2.85,2.5-.52.75-1.01,2.18-1.37,3.05,2-2.23,4.78-4.54,8.01-4.1.83.11,1.67.83,1.81,1.68.37,2.34-2.33,6.56-3.16,8.89-1,2.82.41,2.92,2.3,1.31,2.42-2.07,2-4.06,3.42-6.54,1.61-2.81,5.42-5.3,8.71-5.36,2.21-.04,3.9,1.42,3.07,3.7-1,2.76-4.31,4.56-7.09,4.98-.45.07-2.15.07-2.39.22-.4.24-.54,1.88-.47,2.34.49,2.87,4.61,1.62,6.31.64.53-.31,1.67-1.36,2.01-1.49.21-.08.41.09.62.07.06.39-.31.63-.56.87-2.38,2.18-8.11,3.75-10.64,1.19-.53-.54-.65-1.26-1.11-1.81-1.11,2.11-3.93,3.79-6.31,2.89-1.47-.56-1.67-1.75-1.34-3.14.61-2.59,2.46-5.29,3.16-7.91.25-2.08-2.1-1.03-3.09-.35-3.64,2.51-5.88,6.97-7.23,11.06-1.17.34-2.32.17-3.49-.07l3.86-9.02c-1.05.09-2.32.95-3.33,1.03-.26.02-.42-.04-.4-.35,1.62-.58,3.29-1.42,4.66-2.5.87-2.01,1.67-4.04,2.54-6.05.24-.57,2.33-4.82,2.14-5.02-3.46-.57-6.93-1.27-10.41-1.72-3.23-.42-7.11-1.04-10.27-.23-3.78.97-6.19,4.42-4.94,8.28.85-.04,1.69-.16,2.54-.11.23.01,1.55.15,1.55.32,0,.26-.37.1-.47.1-1.06-.05-2.31-.1-3.26.4.82,1.63,2.43,2.58,4.2,2.89l2.77-.03c-2.88,1.1-6,0-7.67-2.54-6.13,1.87-9.43,12.62-2.37,15.44,8.98,3.59,12.92-9.6,16.11-15.29,1.56-2.79,4.13-6.22,7.07-7.61.35-.17.81-.25.52.27s-1.06,1.27-1.47,1.89c-4.88,7.33-5.96,21.43-17.48,22.09C-.61,31.61-3.61,19.52,5.07,14.48c.33-.19,2.03-.92,2.1-1.02.2-.33-.16-1.02-.19-1.43-.43-5.5,3.88-9.17,8.93-10.11,6.72-1.25,13.26,1.21,19.86,1.97,1.1-1.97,3.45-4.11,5.87-3.87,2.59.26,1.28,3.44.81,4.98h-.01ZM41.68,4.73c.22-.79,1.14-2.59.52-3.29-.92-1.04-3.05,2.13-3.37,2.87.47.08,2.56.6,2.84.42h0ZM40.08,7.61c-.11-.15-2.68-.27-2.99.05l-3.1,7.04c.16.2,3.06-2.96,3.3-3.23.35-.4,2.99-3.59,2.8-3.86h0ZM54.35,16.61c-.31-.33-.92-.43-1.36-.38-2.98.32-5.85,5.02-6.57,7.68,1.74-.09,3.35-.64,4.77-1.64,1.21-.86,4.63-4.08,3.16-5.66Z"/>
    <g>
      <path class="cls-1" d="M293.46,15.66c-.94,3.31-3.24,6.59-4.1,9.9s1.68,2.73,3.57,1.45c1.54-1.04.89-1.34,1.03-2.95.42-4.81,5.88-12.8,9.14-16.37,1.18-1.3,4.06-4.08,5.91-2.79,1.38.96-.01,3.49-.6,4.62-2.81,5.48-7.23,10.62-11.35,15.16-.55,1.07-.22,2.91,1.18,3.06,1.91.2,4.14-2.31,5.35-3.61,2.88-3.07,5.28-6.62,8.27-9.58.72,3.04,1.94,6.68,1.44,9.84-.38,2.41-2.63,3.99-4.92,4.29.5.3,1.34.4,1.92.44,2.39.16,5.15-.34,7.29-1.43,5.99-3.07,7.22-11.5,2.98-16.56-.12-.38,1.03.65,1.12.74,2.12,2.21,2.85,5.85,2.32,8.8-.99,5.6-6.34,8.88-11.72,9.18-3.03.17-7.9-.73-8.15-4.48,1.29-.19.88.4,1.16,1.27.36,1.14,1.27,1.41,2.36,1.06,2.94-.96,2.5-7.05,1.9-9.42-1.64,1.77-3.11,3.7-4.73,5.48s-4.18,4.72-6.72,4.97c-1.51.15-3.49-.23-3.98-1.86-2.26,2.23-7.42,3.52-7.96-.87-2.34,3.48-8.41,5.13-9.46-.25-1.35,2.01-3.27,3.85-5.92,3.31-.79-.16-1.48-.83-1.6-1.64-.32-2.24,1.79-5.23,2.62-7.31.64-1.6,1.47-4.13-1.35-3.09-1.24.46-3.92,2.88-4.76,3.95-1.87,2.37-2.78,5.5-4.17,8.15h-3.24s-.17-.12-.13-.25c.18-.74,1.12-1.75,1.19-2.61-1.45,1.78-4.7,4.32-7.05,2.89-1.7-1.04-1.22-3.13-.66-4.69.87-2.46,2.27-4.86,3.09-7.36l.21-.29h3.3c-1.04,3.06-2.8,5.99-3.86,9.02-.35,1.01-1.1,2.84.69,2.68,1.56-.14,3.93-2.9,4.82-4.15,1.81-2.52,3.08-5.47,4.35-8.28,1.12-.05,2.24-.05,3.34.1.13.13-1.07,2.46-1.22,2.82-.05.11-.27.32-.08.41,1.73-1.86,4.04-3.75,6.71-3.86,6.01-.25.99,7.09-.12,9.59-.28.62-1.22,2.44-.75,2.99.3.35,1.08-.02,1.42-.2.94-.47,2.89-2.47,3.29-3.43.27-.64.35-1.5.64-2.23,1-2.5,4.29-6.03,6.93-6.76,1.46-.4,3.64-.59,4.63.79l.57.99.62-1.62h3.24ZM297.44,23.25c3.12-3.4,6.09-7.02,8.51-10.96.91-1.48,2.72-4.4,2.91-6.06.15-1.3-1.19-.03-1.53.34-1.52,1.67-3.25,4.27-4.52,6.18-2.15,3.24-4.2,6.77-5.37,10.49h0ZM280.19,27.94c.62.58,1.92.2,2.62-.1,2.12-.92,3.77-3.59,4.71-5.62.66-1.43,2.13-4.76.47-5.86-2.06-1.37-4.42,1.96-5.4,3.43-.61.93-1.22,2.04-1.67,3.06-.49,1.12-1.76,4.14-.73,5.11v-.02Z"/>
      <path class="cls-1" d="M276.66,5.21c.03.29-.26.45-.46.6-7.31,5.54-23.98.14-32.7-.35-3.61-.2-8.29.52-10.02,4.17-.29.61-.86,2.97-.38,3.36.07.06,1.33.16,1.72.27.63.18,1.28.39,1.77.84-1.15-.02-2.23-.87-3.48-.5.44.52.75,1.27,1.24,1.75.6.58,1.44.84,2.08,1.28.16.11.34.14.29.4-1.94-.32-3.44-1.82-4.31-3.49-5.16.14-8.87,4.75-9.23,9.67-.43,5.8,4.85,9.98,10.41,8.29,6.56-1.99,9.29-10,12.25-15.43.51-.12,3.76-.84,3.95-.65.04.28-.07.52-.15.78-1.13,3.4-3.78,8.73-6.13,11.42-3.92,4.47-10.72,7.18-16.32,4.13-9.57-5.2-4.96-18.77,5.18-18.81-.71-4.18,2.46-8.04,6.1-9.64,6.34-2.79,15.95.02,22.62,1.14,5.15.86,10.38,1.95,15.58.79v-.02Z"/>
      <path class="cls-1" d="M256.51,13.92c-.55.02-.94.66-1.32.86-.68.35-3.68.07-4.71.14-2.37.16-5.2.95-7.44,1.77-4.07,1.49-8.47,4.46-12.97,3.95-.45-.05-.96-.26-1.31-.56.75.01,1.39.22,2.18.19,4.23-.16,9.63-3.78,13.63-5.41,3.42-1.39,6.84-2.15,10.51-2.56.14.01,1.5,1.53,1.43,1.62h0Z"/>
      <path class="cls-1" d="M263.72,12.42c.87.16,1.79.05,2.66.14.11.01.95.1.7.36-.08.08-1.8.52-2.09.59-.58.13-2.14.26-2.51.48-.47.28-1.84,2.99-2.06,3.04-.42.1-1.24-1.7-1.61-1.75l-4.92,1.12,3.61-2.37c.09-.13-1.1-1.41-1.18-1.62-.06-.14.04-.21.14-.23.7-.19,2.3.19,3.22.11,1.75-.14,3.69-1.78,5.22-2.61.25.21.15.14.07.31-.13.27-1.37,2.32-1.25,2.42h0Z"/>
      <path class="cls-1" d="M254.51,7.57c.23.24-1.36,1.88-1.59,2.2-.35.47-1.15,1.99-1.42,2.25-.4.38-2.92.72-3.58,1.03-.14-.13.69-.88.8-1,1.73-1.65,3.61-3.46,5.79-4.48Z"/>
      <path class="cls-1" d="M168.6,31.02h-9.27c-.24,0-.47-.48-.58-.66-.7-1.17-1.26-2.59-1.91-3.82-1.29-2.42-2.63-4.83-3.98-7.21-.2,3.75-.25,7.5-.43,11.26,0,.1-.12.31-.19.31h-6.97c-.28,0-.2-2.08-.19-2.43,0-.29.12-.57.13-.86.23-6.1.39-12.17.74-18.23h9.95l5.91,11.45.75-11.57h6.97l-.93,21.78v-.02Z"/>
      <path class="cls-1" d="M185.47,9.24c5.63.42,7.55,5.77,3.8,9.77l-1.62.99c4.78,1.51,4.94,7.77.5,9.96-2.67,1.32-7.68,1.03-10.76,1.06-2.39.03-4.78-.03-7.16,0l.93-21.78s14.31,0,14.31,0ZM178.68,17.58h2.92c.29,0,1.16-.39,1.37-.62.61-.66.37-2.01-.47-2.4-.08-.04-.74-.22-.78-.22h-2.92s-.12,3.24-.12,3.24ZM178.56,25.92h3.42c.41,0,1.31-.58,1.46-1.03.98-2.95-3.12-2.1-4.75-2.08l-.12,3.11h-.01Z"/>
      <path class="cls-1" d="M219.75,30.89h-8.83l-1.73-5.28c-2.69-.1-5.49-.19-8.21.07l-2.6,5.18c-2.19.1-4.39-.05-6.58.02-.53.02-1.03.21-1.62.13-.17-.02-.21.07-.18-.19l11.1-21.44c3.43-.2,6.89-.19,10.31-.09l.1.15,8.23,21.44h0ZM207.43,19.94l-1.68-4.85-2.43,4.85h4.11,0Z"/>
    </g>
  </g>
</svg>