<?xml version="1.0" encoding="UTF-8"?>
<svg id="Layer_2" data-name="Layer 2" xmlns="http://www.w3.org/2000/svg" viewBox="0 0 269.35 146.67">
  <defs>
    <style>
      .cls-1 {
        fill: #fff;
      }
    </style>
  </defs>
  <g id="Layer_1-2" data-name="Layer 1">
    <path class="cls-1" d="M62.2,119.75c1.14.72,3.16,1.59,3.64,1.8,5.45,2.32,12.61,4.47,18.38,5.89.89.22,3.5.97,4.19.95.33,0,.56-.19.53-.54-9.68-3.19-18.48-8.41-27.54-12.96v1.73c-.76.13-1.19.24-1.22.33-.14.41-6.29,4.25-7.24,4.87-6.52,4.2-13.36,7.92-19.81,12.23l-20.42-17.97c0-.53,8.72-3.25,9.96-3.46.94,2.1,1.76,4.4,2.79,6.45.76,1.5,1.19,3.13,2.91,3.75,4.83,1.73,12.72-.28,16.56-3.56.27-.23,2.02-1.78,1.67-2.11-1.63.72-3.15,1.67-4.86,2.25-2.59.88-11.69,2.47-13.63.63-6.43-15.33-12.07-31.03-17.76-46.66,1.98-2.06,2.75-.2,4.37.71,10.65,6.02,24.56,4.56,33.85-3.28,2.15-1.82,3.33-4.83,6.52-3.62.35.34-2.31,3.38-2.72,3.79-7.79,7.9-21.26,10.95-31.79,7.54-2.23-.72-4.15-2.15-6.37-2.86l15.07,41.69c.21,1.61,5.38,1.11,5.53.49-.68-12.1-3.14-24.06-4.24-36.13,5.61-.23,11.05-1.83,15.95-4.49l10.11-5.8c.87-.5,1.89-.58,2.81-.27l.43-.62c-.72-.68-1.03-1.75-.66-2.76,1.87-5.11,2.79-9.93,3.07-14.38v-5.84s0-.05,0-.08c-.06,4.31-.89,8.63-2.48,12.43-.27.65-1.4,3.31-2.05,3.28-.57-.02-1.39-.53-2.03-.56-.25-.35,2.11-4.93,2.43-5.89.47-1.39.74-4.03,1.27-5.09.37-.73,2.58-2,2.21-2.94l-1.96,1.21c.07-2.16-.04-4.33-.35-6.47-.21-1.44-1.18-4.07-1.18-5.19s.56-2.91.61-4.54c.01-.32-.17-.95.15-1.05-.48-1.19-.98-2.27-1.45-3.23-.12.29-.36.49-.42.74-.05.24-.47,3.89-1.3,3.09-2.08-3.85-4.97-7.84-9.09-9.69,7.33-6.15,15.86-11.03,24.92-14.76h.01s.02-.01.02-.01c9.77-4.02,20.15-6.72,30.31-8.22.53-.08.51.16.45-.6-8.36.16-16.66,1.62-24.77,3.53-11.3,2.66-20.23,6-29.83,12.56-.95.65-5.46,4.34-5.87,4.44-.73.19-7.7-3.17-9.47-2.39l2.52-1.26,2.02-.56c.09-.11-.24-.48-.44-.51-1.52-.17-6.19,1.55-7.97,1.94-1.71.37-3.52.43-5.23.83C.42,23.93-7.53,51.74,8.16,68.85c-1.55.68-2.9,1.99-3.58,3.58l17.18,38.83.02.74c-2.02.58-9.96,1.34-11.21,2.26-.4.3-.09,3.63.06,4.19.46,1.59,9.52,8.44,10.83,10.66l13.93,12.42.7-.2,23.9-17.08,2.27-4.18-.06-.31ZM16.35,70.67c0-.31,5.13-2.16,5.6-2.14.59.02,2.86,1.46,3.85,1.78,1.3.42,4.57,1.39,5.38.22-1.31.13-5.85-1.56-6.36-2.58-.3-.59.49-.43.71-.49.68-.18,2.89-.82,3.38-.75.99.15,3.75,3.9,5.59,3.51-.46-.56-3.27-3.73-2.72-4.24l5.94-.58c1.28-.51,4.67,4.5,5.26,3.91.25-.25-2.02-3.06-1.51-3.93l6.96.61c-7.81,8.63-22.14,10.94-32.09,4.68ZM20.01,63.82c-1.02-2.46-2.47-4.82-2.76-7.54,1.53,1.1,5.72,1.14,6.95,1.98.67.45,1.18,3.29,1.82,4.08l-6.02,1.48ZM37.23,60.53c-.25.24-6.19.96-6.82.94-1.1-.04-1.31-1.02-1.36-2-.03-.64,0-.38.45-.45,2.05-.31,5.45.79,7.73.31-.4.39.04,1.16,0,1.2ZM52.03,61.71c-3.61-.4-7.21-1.09-10.87-.88,0-.76-.21-1.33.51-1.77.57-.35,5.22-.99,6.52-1.34,2.13-.58,4.12-1.6,6.29-2.03l-2.46,6.02ZM55.02,52.29c-.46.41-5.75,1.92-6.76,2.17-2.04.51-4.14.76-6.18,1.23,1.83-6.24,8.19-9.09,12.57-13.32.87,1.53,1.49,8.93.37,9.92ZM43.32,26.16c2.13.47,9.97,9.26,9.61,11.17-4.44,4.31-10.39,6.92-13.43,12.6-1.02,1.9-1.6,4-2.31,6.02-2.93.26-5.82-.18-8.73-.26-1.56-9.33,3.48-18.68,9.69-25.28.68-.72,4.54-4.39,5.18-4.24ZM28.38,21.82c3.23.18,6.43.67,9.47,1.77-8.79,7.79-16.18,18.83-14.24,31.18l-7.53-2.46c-1.49-11.4,3.72-23.1,12.3-30.49ZM7.93,32.88c3.29-4.53,7.98-8.61,13.57-9.89-3.97,3.96-7.18,8.85-8.92,14.24-.29.88-1.38,4.64-1.38,5.29v7.11c-3.42-2.03-6.62-5.66-6.68-9.84-.03-1.88,2.26-5.32,3.41-6.91ZM6.5,60.53c-2.33-4.42-3-9.15-3.17-14.08-.03-.26.57-.18.6-.15.12.1,1.08,2.04,1.53,2.56,2.04,2.4,5.27,3.66,6.56,5.1.92,1.02,1.42,4.49,2.57,5.75l3.88,4.75c-1.56,0-5.43,2.63-6.51,2.62-1.28,0-4.81-5.32-5.45-6.55Z"/>
    <path class="cls-1" d="M130.48,146.64c3.96.1,7.94-.08,11.9,0,.24-.39.89-.23,1.28-.24,38.46-.47,98.51-15.26,119.1-51.04,2.9-5.04,5.1-10.59,6.05-16.36.19-1.15.17-2.46.53-3.55v-6.3c-1.25-17.34-14.12-31.6-27.6-41.13-2.09-1.48-5.56-4.05-7.74-5.1-.28-.14-.47-.3-.83-.22v15.05c18.45,14.48,25.75,36.77,12.37,57.65-18.8,29.36-65.3,40.44-97.91,43.29-30.26,2.64-61.35.47-89.82-10.45-.35-.13-.7-.26-1.05-.4-.49-.14-2.11.98-2.25,1.28-.13.27.07.3.27.43.47.31,1.1.65,1.78.99,1.2.6,2.55,1.2,3.52,1.65,21.61,10.06,46.74,13.81,70.41,14.43Z"/>
    <path class="cls-1" d="M50.46,26.07c.29.34,1.92,1.52,1.14.14,1.05-.47,2.1-.93,3.15-1.38,13.32-5.69,27.33-9.78,41.62-12.32,36.23-6.45,73.54-3.51,107.87,9.73-.23-3.18.44-7.36,3.74-8.75.67-.28,2.17-.14,1.53-1.06-.39-.55-11.36-3.48-12.91-3.89-14.06-3.71-29.2-6.07-43.69-6.6-6.45-.24-13.86-.24-20.3,0-21.39.81-45.28,5.5-65.11,13.66-4.69,1.93-9.24,4.21-13.83,6.33-1.45.67-2.91,1.33-4.38,1.95-.09.12,1,1.97,1.19,2.19Z"/>
    <path class="cls-1" d="M120.17,31.4l-10.46,32.85c2.23.09,4.42-.26,6.66-.24,7.49.04,15.13.93,22.63.24,5.11-.47,9.05-1.78,12.37-5.83,2.53-3.09,5.89-10.96.51-12.89l-2.5-.65c2.71-.45,5.29-1.36,7.12-3.5,2.11-2.46,4.02-8.27,1.43-10.89-1.59-1.6-5.31-2.05-7.5-2.18-9.49-.58-19.4.66-28.95.24-1.01-.04-2.36-.27-3.37-.48-.32,1.74,2.42,1.57,2.06,3.32ZM135.29,34.37c1.74.24,6.54-.74,7.22,1.4.4,1.26-.4,3.87-1.19,4.9-.55.71-2.42,1.65-3.25,1.65-1.53,0-3.72-.19-5.13,0-.07,0-.26.35-.35.23l2.71-8.18ZM130.94,47.56c5.12-.32,8.93-.81,6.78,5.61-.54,1.62-1.29,2.66-2.73,3.57-.33.21-2.33,1.21-2.53,1.21h-5.25l3.73-10.39Z"/>
    <polygon class="cls-1" points="114.38 28.55 101.07 28.55 95.12 46.29 90.11 28.55 72.37 28.55 74.42 31.42 63.84 63.31 63.73 64.25 77.75 63.91 83.92 45.81 89.18 64.24 103.03 64.27 114.38 28.55"/>
    <path class="cls-1" d="M196.3,64.25l.93-35.71h-25.67c.41.78,2.48,2.16,2.24,3.04l-20.92,32.67h15.87l3.97-7.7h8.4l-.7,7.7h15.87ZM175.76,50.95l8.05-15.87-1.52,15.87h-6.53Z"/>
    <path class="cls-1" d="M56.16,106.02c1.14.03,2.41.17,3.67.29.98.1,1.95.18,2.85.19,1.23.01,2.42-.23,3.64-.35l4.45-14.1,15.68-.31.35-.35,1.68-6.14h-15.4l2.13-7.67,17.09-.07c.86-.3,2.31-5.88,2.72-6.96h-35.01c.28.93,1.64,1.65,1.59,2.62l-4.84,15.72-5.11,16.6c-.07,1.23,3.64.51,4.52.53Z"/>
    <path class="cls-1" d="M124.65,106.26h12.72c.57,0,1.65-4.72,1.92-5.55,1.39-4.27,3.2-8.58,4.38-12.89,1.07-3.92,2.62-7.3-2.27-8.93-2.71-.91-7.46-.87-10.27-.34-2.12.4-3.9,1.54-5.9,2.27-.29,0-.11-1.61.11-1.87h-14c-.1,1.42,1.96,1.22,1.35,2.86-2.59,8.11-5.45,16.15-7.41,24.45h12.49c.17,0,.72-.83.76-1.1l6.07-19.14c1.36-1.83,6.64-3.88,6.31-.01l-6.25,20.26Z"/>
    <path class="cls-1" d="M147.23,106.43c4.86.84,10.36-.13,14.75-2.27v2.1h11.55c.11,0,.47-.46.52-.65,2.02-7.53,4.67-14.95,6.35-22.54-.3-4.36-6.75-5.07-10.14-5.28-5.37-.34-15.55-.6-19.25,3.85-.48.57-3.37,5.71-1.76,5.71h11.2c.76-1.66.52-3.73,2.85-4.15,5.67-1,5.73,3.31,1.86,5.59-6.22,3.66-17.35,1.86-21.59,9.22-2.45,4.25-1.27,7.56,3.63,8.41ZM156.01,99.26c.4-3.89,6.26-5.24,9.47-5.36-.68,1.6-1.27,5.82-2.58,6.87-1.55,1.25-7.23,1.69-6.9-1.51Z"/>
    <path class="cls-1" d="M215.32,77.79c-6.27.43-13.24,3.47-12.96,10.84.23,5.98,10.23,5.91,13.85,8.57,2.7,1.98.46,4.35-2.06,4.63-3.51.39-4.58-.49-3.39-3.97l-11.55-.24c-.59.09-.8.83-1,1.34-1.77,4.55,1.43,6.93,5.51,7.69,5.6,1.04,20.06,1.11,24.32-3.07,2.11-2.06,4.32-7.45,1.98-9.94-2.49-2.64-9.09-3.15-12.35-4.92-1.04-.56-2.1-1.46-1.91-2.79.5-3.57,6.54-3.41,6.86-1.22.06.37-.93,2.16-.08,2.16h11.32c.96-2.74,1.41-5.82-1.47-7.52-3.03-1.79-13.38-1.84-17.08-1.58Z"/>
    <path class="cls-1" d="M208.55,72.66h16.69c.72-3.12.36-6.49-.97-9.42-1.33-2.95-4.53-4.72-6.62-7.15-1.66-1.93-2.89-4.25-4.55-6.18-2.38-2.77-5.01-4.7-5.36-8.88-.13-1.48,1.66-4.54,1.41-4.78-.23-.22-2.1.46-2.34-1.98-.21-2.05,3.32-8.65,4.78-10.16.93-.97,2.74-1.56,4.04-1.8,1.44-.27,2.93.51,2.64-1.82-.07-.55-.5-.85-.45-1.33.03-.31.7-2.61.85-2.91.44-.91,1.76-1.31,1.68-2.4h-9.22c-1.8,0-4.82,3.41-5.02,5.25v50.19c-.09.87,1.76,3.38,2.46,3.38Z"/>
    <polygon class="cls-1" points="189.99 70.79 178.79 106.26 192.1 106.26 202.6 70.79 189.99 70.79"/>
    <polygon class="cls-1" points="109.01 79.19 96.06 79.19 87.31 106.26 100.49 106.26 109.01 79.19"/>
    <path class="cls-1" d="M168.64,110.94c-3.64-.33-9.34-.01-11.65,3.28-1.17,1.66-3.88,9.75-4.08,11.8-.66,6.78,11.57,6.23,15.45,4.01,2.6-1.49,5.79-7.52,3.04-9.95-.25-.22-2.3-1.39-2.53-1.44-1.32-.27-4.51,0-6.07,0-.07,0-.17.28-.35.23-.29-.41.61-2.68.96-3.12,1.11-1.38,5.38-1.32,4.17,1.25,1.6-.17,5.8,1.09,6.59-.76,1.36-3.18-3.06-5.08-5.55-5.31ZM163.98,121.89c4.12.55-1.19,7.93-3.57,5.56-1.18-1.17.55-5.96,3.57-5.56Z"/>
    <path class="cls-1" d="M148.93,111.51c-5.59-1.37-13.47-.05-15.08,6.41-1.66,6.66,6.03,6.13,10.4,5.62-.53,2.1-1.94,4.66-4.5,4.15-1.89-.38-1.04-1.47-1.37-2.02-.43-.72-5.67.18-6.71,0-1.68,6.37,6.41,6.15,10.59,5.81,6.13-.5,7.41-3.16,9.29-8.45,1.63-4.58,3.78-9.94-2.62-11.51ZM144.15,120.75c-.78.31-2.28.33-2.87-.31-1.17-1.24.49-4.64,1.98-5.25,4.66-1.9,3.33,4.59.89,5.56Z"/>
    <path class="cls-1" d="M127.27,111.23c-4.79-.89-11.34.09-13.56,4.99-3.49,7.72,3.9,8.04,9.53,7.32-.24,1.35-.95,3.38-2.37,3.81-1.9.58-3.85.17-3.46-2.18-.41-.16-.86.47-1.05.47h-5.72c-1.05,5.95,6.2,6.16,10.38,5.83,6.22-.49,8.36-4.08,10.04-9.57,1.56-5.08,2.86-9.44-3.79-10.67ZM123.14,120.75c-4.78,1.55-3.02-5.2-.43-5.8,4.53-1.05,2.94,4.98.43,5.8Z"/>
    <path class="cls-1" d="M227.57,72.66c1.64.22,3.87-1.32,4.2-2.92v-23.46c-.95.2-1.44,1.31-2.25,1.83-5.63,3.59-9.44-6.36-2.88-7.32.09-.78-1.94-3.85-2.27-4.96-.26-.87-.59-4.99-.78-5.17-.16-.15-1.74,0-2.03.28-.28.27-1.95,4.06-1.92,4.47.04.68.67.98.88,1.47,1.66,4,1.11,8.96,2.32,13.08,1,3.39,3.88,7.68,4.44,11.19.3,1.84-.4,4.02-.18,6.01.12,1.1,1.13,2.86,1.07,3.74-.03.49-.87,1.02-.6,1.74Z"/>
    <path class="cls-1" d="M139.93,19.68c6.36.43,13.48,1.34,19.77,2.4,11.04,1.86,19.2,4.56,30.89,3.68,1.36-.1,1.29-.42.11-.83-4.65-1.59-11.64-3.21-16.53-4.24-17.27-3.67-35.86-3.14-53.38-1.94-.89.06-1.79-.04-2.68,0v.7c7.27.12,14.57-.25,21.82.24Z"/>
    <path class="cls-1" d="M221.48,23.06c0,.38,2.49,1.77,2.94,2.22,2.57,2.52,1.32,4.84,1.81,7.76.16.94.89,1.85,1.18,2.79.96,3.15.14,6.12,4.36,7.19v-25.09c0-.12-1.1-1.79-1.28-1.99-1.8-2.06-5.29-2.13-7.83-2.09-.08.83,1.16.91,1.36,1.56.36,1.17-.16,4.09-.76,5.22-.47.87-1.78,1.62-1.79,2.44Z"/>
    <path class="cls-1" d="M106.14,111.62c-.35.24-.41.83-.71,1.1-1.48,1.31-3.47,2.42-4.95,3.8-.4.6.12.86.71.94,1.04.14,2.31-.1,3.38,0l-3.97,13.3h6.18l6.42-19.14c-1.92.08-5.43-1.14-7.07-.01Z"/>
    <path class="cls-1" d="M98.62,70.56c-.89,2.21-1.76,4.64-2.22,7h13.3l1.87-7h-12.95Z"/>
  </g>
</svg>