<?xml version="1.0" encoding="UTF-8"?>
<svg id="Layer_2" data-name="Layer 2" xmlns="http://www.w3.org/2000/svg" viewBox="0 0 269.35 146.67">
  <defs>
    <style>
      .cls-1 {
        fill: #fff;
      }
    </style>
  </defs>
  <g id="Layer_1-2" data-name="Layer 1">
    <g>
      <path class="cls-1" d="M62.2,119.75c1.14.72,3.16,1.59,3.64,1.8,5.45,2.32,12.61,4.47,18.38,5.89.89.22,3.5.97,4.19.95.33,0,.56-.19.53-.54-9.68-3.19-18.48-8.41-27.54-12.96v1.73c-.76.13-1.19.24-1.22.33-.14.41-6.29,4.25-7.24,4.87-6.52,4.2-13.36,7.92-19.81,12.23l-20.42-17.97c0-.53,8.72-3.25,9.96-3.46.94,2.1,1.76,4.4,2.79,6.45.76,1.5,1.19,3.13,2.91,3.75,4.83,1.73,12.72-.28,16.56-3.56.27-.23,2.02-1.78,1.67-2.11-1.63.72-3.15,1.67-4.86,2.25-2.59.88-11.69,2.47-13.63.63-6.43-15.33-12.07-31.03-17.76-46.66,1.98-2.06,2.75-.2,4.37.71,10.65,6.02,24.56,4.56,33.85-3.28,2.15-1.82,3.33-4.83,6.52-3.62.35.34-2.31,3.38-2.72,3.79-7.79,7.9-21.26,10.95-31.79,7.54-2.23-.72-4.15-2.15-6.37-2.86l15.07,41.69c.21,1.61,5.38,1.11,5.53.49-.68-12.1-3.14-24.06-4.24-36.13,5.61-.23,11.05-1.83,15.95-4.49l10.11-5.8c.87-.5,1.89-.58,2.81-.27l.43-.62c-.72-.68-1.03-1.75-.66-2.76,1.87-5.11,2.79-9.93,3.07-14.38v-5.84s0-.05,0-.08c-.06,4.31-.89,8.63-2.48,12.43-.27.65-1.4,3.31-2.05,3.28-.57-.02-1.39-.53-2.03-.56-.25-.35,2.11-4.93,2.43-5.89.47-1.39.74-4.03,1.27-5.09.37-.73,2.58-2,2.21-2.94l-1.96,1.21c.07-2.16-.04-4.33-.35-6.47-.21-1.44-1.18-4.07-1.18-5.19s.56-2.91.61-4.54c.01-.32-.17-.95.15-1.05-.48-1.19-.98-2.27-1.45-3.23-.12.29-.36.49-.42.74-.05.24-.47,3.89-1.3,3.09-2.08-3.85-4.97-7.84-9.09-9.69,7.33-6.15,15.86-11.03,24.92-14.76h.01s.02-.01.02-.01c9.77-4.02,20.15-6.72,30.31-8.22.53-.08.51.16.45-.6-8.36.16-16.66,1.62-24.77,3.53-11.3,2.66-20.23,6-29.83,12.56-.95.65-5.46,4.34-5.87,4.44-.73.19-7.7-3.17-9.47-2.39l2.52-1.26,2.02-.56c.09-.11-.24-.48-.44-.51-1.52-.17-6.19,1.55-7.97,1.94-1.71.37-3.52.43-5.23.83C.42,23.93-7.53,51.74,8.16,68.85c-1.55.68-2.9,1.99-3.58,3.58l17.18,38.83.02.74c-2.02.58-9.96,1.34-11.21,2.26-.4.3-.09,3.63.06,4.19.46,1.59,9.52,8.44,10.83,10.66l13.93,12.42.7-.2,23.9-17.08,2.27-4.18-.06-.31ZM16.35,70.67c0-.31,5.13-2.16,5.6-2.14.59.02,2.86,1.46,3.85,1.78,1.3.42,4.57,1.39,5.38.22-1.31.13-5.85-1.56-6.36-2.58-.3-.59.49-.43.71-.49.68-.18,2.89-.82,3.38-.75.99.15,3.75,3.9,5.59,3.51-.46-.56-3.27-3.73-2.72-4.24l5.94-.58c1.28-.51,4.67,4.5,5.26,3.91.25-.25-2.02-3.06-1.51-3.93l6.96.61c-7.81,8.63-22.14,10.94-32.09,4.68ZM20.01,63.82c-1.02-2.46-2.47-4.82-2.76-7.54,1.53,1.1,5.72,1.14,6.95,1.98.67.45,1.18,3.29,1.82,4.08l-6.02,1.48ZM37.23,60.53c-.25.24-6.19.96-6.82.94-1.1-.04-1.31-1.02-1.36-2-.03-.64,0-.38.45-.45,2.05-.31,5.45.79,7.73.31-.4.39.04,1.16,0,1.2ZM52.03,61.71c-3.61-.4-7.21-1.09-10.87-.88,0-.76-.21-1.33.51-1.77.57-.35,5.22-.99,6.52-1.34,2.13-.58,4.12-1.6,6.29-2.03l-2.46,6.02ZM55.02,52.29c-.46.41-5.75,1.92-6.76,2.17-2.04.51-4.14.76-6.18,1.23,1.83-6.24,8.19-9.09,12.57-13.32.87,1.53,1.49,8.93.37,9.92ZM43.32,26.16c2.13.47,9.97,9.26,9.61,11.17-4.44,4.31-10.39,6.92-13.43,12.6-1.02,1.9-1.6,4-2.31,6.02-2.93.26-5.82-.18-8.73-.26-1.56-9.33,3.48-18.68,9.69-25.28.68-.72,4.54-4.39,5.18-4.24ZM28.38,21.82c3.23.18,6.43.67,9.47,1.77-8.79,7.79-16.18,18.83-14.24,31.18l-7.53-2.46c-1.49-11.4,3.72-23.1,12.3-30.49ZM7.93,32.88c3.29-4.53,7.98-8.61,13.57-9.89-3.97,3.96-7.18,8.85-8.92,14.24-.29.88-1.38,4.64-1.38,5.29v7.11c-3.42-2.03-6.62-5.66-6.68-9.84-.03-1.88,2.26-5.32,3.41-6.91ZM6.5,60.53c-2.33-4.42-3-9.15-3.17-14.08-.03-.26.57-.18.6-.15.12.1,1.08,2.04,1.53,2.56,2.04,2.4,5.27,3.66,6.56,5.1.92,1.02,1.42,4.49,2.57,5.75l3.88,4.75c-1.56,0-5.43,2.63-6.51,2.62-1.28,0-4.81-5.32-5.45-6.55Z"/>
      <path class="cls-1" d="M130.48,146.64c3.96.1,7.94-.08,11.9,0,.24-.39.89-.23,1.28-.24,38.46-.47,98.51-15.26,119.1-51.04,2.9-5.04,5.1-10.59,6.05-16.36.19-1.15.17-2.46.53-3.55v-6.3c-1.25-17.34-14.12-31.6-27.6-41.13-2.09-1.48-5.56-4.05-7.74-5.1-.28-.14-.47-.3-.83-.22v15.05c18.45,14.48,25.75,36.77,12.37,57.65-18.8,29.36-65.3,40.44-97.91,43.29-30.26,2.64-61.35.47-89.82-10.45-.35-.13-.7-.26-1.05-.4-.49-.14-2.11.98-2.25,1.28-.13.27.07.3.27.43.47.31,1.1.65,1.78.99,1.2.6,2.55,1.2,3.52,1.65,21.61,10.06,46.74,13.81,70.41,14.43Z"/>
      <path class="cls-1" d="M50.46,26.07c.29.34,1.92,1.52,1.14.14,1.05-.47,2.1-.93,3.15-1.38,13.32-5.69,27.33-9.78,41.62-12.32,36.23-6.45,73.54-3.51,107.87,9.73-.23-3.18.44-7.36,3.74-8.75.67-.28,2.17-.14,1.53-1.06-.39-.55-11.36-3.48-12.91-3.89-14.06-3.71-29.2-6.07-43.69-6.6-6.45-.24-13.86-.24-20.3,0-21.39.81-45.28,5.5-65.11,13.66-4.69,1.93-9.24,4.21-13.83,6.33-1.45.67-2.91,1.33-4.38,1.95-.09.12,1,1.97,1.19,2.19Z"/>
      <path class="cls-1" d="M139.93,19.68c6.36.43,13.48,1.34,19.77,2.4,11.04,1.86,19.2,4.56,30.89,3.68,1.36-.1,1.29-.42.11-.83-4.65-1.59-11.64-3.21-16.53-4.24-17.27-3.67-35.86-3.14-53.38-1.94-.89.06-1.79-.04-2.68,0v.7c7.27.12,14.57-.25,21.82.24Z"/>
    </g>
    <g>
      <g>
        <path class="cls-1" d="M193.88,24.15l-1.08,39.83h-15.99l.81-7.86h-6.5l-2.98,7.86h-16.53c6.68-12.12,12.55-24.67,19.13-36.85.21-.87-1.51-1.89-1.25-2.98h24.39ZM178.7,49.89l2.3-17.35-7.18,17.35h4.88Z"/>
        <g>
          <path class="cls-1" d="M94.97,24.15l4.06,17.34,3.8-17.34h13.82l-10.55,39.72-14.88.08-3.97-18.94-5.28,18.97h-13.82l9.92-36.03c.08-1.09-1.61-2.72-2.06-3.8h18.97Z"/>
          <path class="cls-1" d="M147.27,43.12l3.4.79c5.53,1.98,3.58,8.78,1.62,12.76-2.86,5.79-6.91,6.7-13,7.32h-27.52s9.68-36.24,9.68-36.24l-2.09-3.61c8.98.33,18.28-.45,27.23,0,6.67.34,12.89,1.41,11.13,9.77-1.1,5.22-4.99,9.09-10.45,9.2ZM141.21,38.69c1.01-1.02,2.17-5.61,1.58-6.95-.69-1.56-4.85-.39-6.35-1.09l-2.72,9.75c2.25-.24,5.8-.01,7.49-1.72ZM129.11,57.75h3.93c1.21,0,3.2-.99,3.88-2.08.54-.87,1.97-5.98,1.92-6.98-.14-3.03-4.5-2.42-6.51-2.17l-3.22,11.22Z"/>
        </g>
      </g>
      <g>
        <path class="cls-1" d="M131.55,126.85h8.13c-.36,1.32-1.2,3,1.09,2.33,1.27-.37,1.49-2.57,1.89-3.68h-7.72c-.39,0-1.72-.96-1.89-1.36-.61-1.46,1.28-7.85,2.29-9.08,2.27-2.75,9.29-2.53,12.6-2.3s6.08.61,5.53,4.72c-.22,1.67-1.78,5.8-2.41,7.62-1,2.88-1.63,6.43-4.8,7.66-2.24.87-9.56.84-12.15.61-4.6-.42-3.99-3.1-2.56-6.52ZM145.37,117.37c-2.28-1.82-4.78,2.66-3.95,3.81.25.35,2.4.36,2.56.22.3-.26.78-3.44,1.39-4.03Z"/>
        <path class="cls-1" d="M118,126.85c.27.26-1.77,3.16,1.09,2.33,1.17-.34,1.62-2.58,1.89-3.68h-7.45c-1.22,0-2.31-1.62-2.28-2.82.02-.78,1.47-5.4,1.87-6.27,1.98-4.32,9.65-3.96,13.69-3.65,2.44.19,5.49.72,5.23,3.85-.14,1.67-3.44,11.35-4.31,13.05-1.33,2.6-3.48,3.49-6.32,3.7-2.24.17-9.32.28-11.09-.58-2.76-1.34-.66-5.93-.03-5.93h7.72ZM123.69,117.37c-2.83-1.33-4.16,1.76-3.77,4.04.15.09,2.23.08,2.37-.01.24-.15,1-3.48,1.39-4.02Z"/>
        <path class="cls-1" d="M155.67,117.36l1.8-4.63,18.8.02-1.51,4.05c-4.53,5.52-9.56,10.76-13.67,16.55h-8.94l13.01-15.99h-9.48Z"/>
        <path class="cls-1" d="M111.5,112.76l-6.77,20.59h-7.45c-.07,0-.46-.36-.3-.56l3.96-12.99h-4.61c.08-.33.44-.58.69-.8,1.36-1.21,5.95-4.97,7.35-5.66.42-.21,2.52-.58,2.94-.58h4.2Z"/>
      </g>
      <g>
        <path class="cls-1" d="M216.64,92.97c-.32-.29,3.36-5.35-1.47-4.59-1.83.29-3.02,3.44-2.07,4.75.38.53,3.24,1.65,4.02,1.94,3.58,1.35,9.86,1.81,9.49,6.89-.3,4.15-2.89,10.92-7.25,12.28-3.53,1.1-16.06,1-19.89.37-2.42-.4-5.06-1.5-4.97-4.37.03-.82,1.37-5.91,2.01-6.13l12.82.24-1.08,4.59c1.51-.11,2.88.55,3.73-1.01s1.57-4.19-.38-5.19c-2.57-1.31-7.01-1.55-9.91-3.09-1.6-.85-2.49-2.01-2.55-3.89-.05-1.5,1.85-7.73,2.6-9.18,1.43-2.77,3.1-3.76,6.1-3.93,4.14-.24,16.09-.54,19.6.48,5.46,1.59,2.86,6.11,1.7,9.99l-12.47-.16Z"/>
        <g>
          <path class="cls-1" d="M229.24,14.66c1.97.33,3.62,2.52,3.66,4.47v56.37c-.17,2.43-1.89,4.68-4.46,4.74-1.69.04-.12-.67.08-1,.77-1.29-.54-3.11-.9-4.43-.24-.87-.64-2.27-.68-3.13-.06-1.29.67-2.83.55-3.76-.07-.5-1.05-1.96-1.28-2.81-.43-1.57-.32-3.48-.75-4.94-.55-1.9-2.38-4.29-3.05-6.43-1.19-3.82-1.13-8.02-2.44-12.2-.27-.85-1.21-2.16-1.16-2.88.01-.22,1.28-3.98,1.42-4.15.09-.11,2.55-1.26,2.64-1.15-.04,3.9,2.24,7.28,3.26,10.95-4.14,1.12-4.68,7.14-.54,8.68,5.21,1.94,8.81-4.69,4.42-7.94-.35-.26-1.35-.53-1.42-.63-.1-.12-.08-2.23-.31-3.06-.42-1.54-1.47-2.93-1.85-4.38-.52-2-.15-5.68-.9-7.23-.7-1.44-4.87-4-5.05-4.73-.21-.83,1-1.9,1.34-2.63.19-.41.18-1.37.3-1.48.15-.14.72.11.78-.17.12-.58-.28-1.19-.26-1.65.05-1.42.87-2.34-.56-3.51-.48-.39-1.15-.37-1.37-.94,2.58.3,6.07-.41,8.54,0Z"/>
          <path class="cls-1" d="M208.64,80.24c-1.73-.29-3.2-2.21-3.39-3.93-.64-5.76.27-12.81-.28-18.71.63-6.36.12-12.83.28-19.23l.54-.4c-.62,1.59,1.65,1.36,1.9,1.63.14.16-.88,3.03-.93,3.75-.25,3.54,1.14,5.79,2.31,8.95,2.39-.44,2.78,2.55,3.81,4.18,1.26,1.99,4.68,5.75,6.45,7.38,1,.92,2.37,1.14,3.13,1.74,1.32,1.05,3.39,6.87,3.58,8.61.22,2.01-.2,4.07.34,6.03h-17.75ZM208.24,69.67v7.59h1.35v-4.61c.88.42,1.6,4.29,1.93,4.57.2.17,1.21-.04,1.6.03v-7.59h-1.63s-.14,3.8-.14,3.8c-.35,0-1.1-3.64-1.25-3.77-.2-.17-1.45.06-1.87-.03ZM214.2,69.67v7.59c2.08-.05,4.7.7,4.59-2.28-.03-.81-.8-1.49-.81-1.92,0-.15.5-.1.55-.32.1-.4.07-2.2-.13-2.53-.52-.88-3.25-.43-4.2-.54ZM223.12,69.7c-.17-.15-2.01-.12-2.28.24-.72.95-.84,5.91-1.48,7.32,2.54.34,1.18-.55,1.74-1.37.3-.43,1.33-.36,1.65.01.73.87-.39,2.07,2.03,1.63-.4-1-1.3-7.53-1.65-7.83Z"/>
          <path class="cls-1" d="M219.08,14.66c-.33.71-1.26,1.1-1.51,1.88-.17.53-.06,1.8-.15,1.9-.11.11-.74-.14-.8.16-.14.7.28,1.85.3,2.69.12,3.7-1.71,2.41-4.3,3.04-3.04.74-3.71,5.24-5.51,7.49l-1.85,4.24v-18.02c0-.12,1-1.81,1.22-2.03.3-.31,2.12-1.35,2.44-1.35h10.16Z"/>
        </g>
      </g>
      <g>
        <path class="cls-1" d="M173.28,108.15h-13.55l.54-2.17c-.96.02-1.5.81-2.44,1.21-3.75,1.61-13.77,2.58-14.78-2.82-.42-2.23,1.49-8.32,2.75-10.29,3.59-5.63,11.57-5.88,17.26-8.22,1.5-.62,5.21-2.38,4.13-4.54-.38-.76-2.71-.71-3.39-.4-1.13.51-1.52,3.93-2.31,3.93h-11.65c-.78,0,0-2.12.13-2.58,1.11-3.69,3.22-6.36,7.05-7.31,4.04-1,16.09-1.2,19.93.13,2.8.97,4.56,3.28,4.12,6.31l-7.79,26.76ZM164.34,92.16c-1.47.51-3.86.81-4.99,1.92-.85.83-2.57,5.56-2.28,6.56.47,1.6,3.57.83,4.41-.09.48-.53,3.18-8.07,2.86-8.38Z"/>
        <path class="cls-1" d="M177.75,108.15l10.75-39.12.34-.37c.91.38,1.74-.05,2.71-.09,2.75-.12,5.43.18,8.14.31.87.04,1.92-.64,2.85.12l-11.25,39.15h-13.55Z"/>
        <g>
          <path class="cls-1" d="M138.6,108.15h-13.28c1.98-7.95,4.52-15.83,6.75-23.73.67-3.31-3.49-3.27-4.6-.8-2.52,7.37-4.11,15.31-6.63,22.64-.22.65-.3,1.4-.81,1.9h-13.14l8.61-29.75c.36-1.11-.76-2.04-.92-3.02-.05-.29.18-.56.3-.56h12.87c-.95,4.34,1.4,1.46,3.43.58,1.43-.62,3-1.02,4.56-1.13,5.69-.43,11.72.06,10.65,7.4l-7.79,26.49Z"/>
          <path class="cls-1" d="M97.68,68.86l-2.47,8.1-17.69.06c-.25.04-.29.23-.39.42-.59,1.13-.82,4.13-1.41,5.5h16.12c.1,0,.36.25.29.55-.6,2.53-2.05,5.17-2.33,7.84h-16.66s-4.75,16.8-4.75,16.8h-14.89c3.07-11.89,6.72-23.63,10.24-35.4l-2.65-3.88h36.58Z"/>
          <path class="cls-1" d="M112.31,78.61l-8.53,29.27c-.15.2-3.4.51-4.06.55-2.43.12-6.34.24-8.7,0-.37-.04-.71,0-.89-.41l8.62-29.41h13.55Z"/>
          <path class="cls-1" d="M115.29,69.13c.02.39.02.77-.06,1.15-.1.47-1.42,4.67-1.56,4.88-.1.16-.84.47-.95.47h-12.47c-.16,0-.38-.39-.37-.62.09-1.48,1.86-4.16,1.86-5.88h13.55Z"/>
        </g>
      </g>
    </g>
  </g>
</svg>