<?xml version="1.0" encoding="UTF-8"?>
<svg id="Layer_2" data-name="Layer 2" xmlns="http://www.w3.org/2000/svg" viewBox="0 0 269.35 146.67">
  <defs>
    <style>
      .cls-1 {
        fill: #fff;
      }
    </style>
  </defs>
  <g id="Layer_1-2" data-name="Layer 1">
    <g>
      <g>
        <path class="cls-1" d="M197.52,24.23l-1.99,39.55-17.02.04,1.03-8.12-6.55.02-3.12,8.13-16.37.04c-.08,0-.19.32-.39.26-.27-.36,2.86-6.1,3.34-6.99,5.25-9.92,10.87-19.66,16.35-29.45l-1.99-3.41,26.71-.07ZM180.56,49.68l2.18-15.72-6.9,15.73h4.71Z"/>
        <g>
          <path class="cls-1" d="M98.39,24.5c.78.23,1.84,14.2,2.66,15.97l4.02-15.99,14.01-.04-11.28,39.46-15.46.16-2.8-17.8-5.35,17.8c-2.56.11-5.14-.02-7.71.04-1.95.04-4.25.56-6.28.29-.36-.05-.45.15-.38-.38l10.58-35.18c.05-1.03-2.4-3.02-2.3-4.27l20.3-.05Z"/>
          <path class="cls-1" d="M153.91,24.35c7.09.64,8.58,5.19,6.19,11.38-1.71,4.42-4.8,7.15-9.68,7.49l4.18,1.7c2.98,2.57,1.64,6.87.35,9.98-3.49,8.41-10.33,9-18.47,9.31-7.71.29-15.48-.19-23.19.05l10.84-36.08-2.04-3.75,31.82-.08ZM136.8,40.37h4.06c2.34-.02,4.13-6.25,3.78-8.01-.29-1.42-3.94-.75-5.08-.92l-2.76,8.93ZM132.13,56.88c1.77-.07,4.31.37,5.61-1.08.72-.8,2.35-6.12,2.42-7.26.17-2.77-3.36-1.73-5.16-1.86l-2.88,10.19Z"/>
        </g>
      </g>
      <g>
        <path class="cls-1" d="M99.95,68.75l-2.58,9.05-17.91.2c-.54.18-1.69,5.08-1.98,5.99l17.02-.04-2.39,7.94-.37.41-16.87.46-5.16,16.81-15.99.15,10.86-36.11c.1-1-2.55-3.59-2.85-4.77l38.24-.1Z"/>
        <path class="cls-1" d="M130.87,76.53c-.45.87-.74,1.64.13,2.35,2.23-1.63,5.09-2.47,7.84-2.64,5.09-.33,10.32.68,9.21,7.07l-7.9,25.78-13.13.19,7.14-23.99c-.79-3.11-4.07-.89-4.52,1.39l-6.78,22.46c-4.36.83-8.73-.21-13.13.32l9.04-29.16c.37-1.52-1.34-2.32-1.53-3.72l13.62-.04Z"/>
        <path class="cls-1" d="M149.23,87.22c1.34-5.82,3.66-9.6,9.87-10.69,3.46-.61,14.4-.84,17.66-.05s4.71,2.96,4.41,6.33l-8.04,26.22c-1.47-.11-11.39.58-11.8.15-.09-.09.23-1.71-.4-1.83-.22-.04-3.22,1.48-4.05,1.71-3.68,1.02-12.06,1.48-12.82-3.65-.46-3.11,2.18-9.7,4.68-11.75,4.57-3.76,15.25-4.51,18.16-7.53.93-.97,1.48-2.59-.29-2.86-3.8-.59-3.01,1.49-4.43,3.92l-12.96.03ZM164.71,94.51c-4.16.68-6.39,2.82-6.99,7.02-.33,2.29,1.99,2.23,3.54,1.42,1.95-1.01,2.38-6.5,3.46-8.44Z"/>
        <polygon class="cls-1" points="202.87 68.48 190.67 109.11 176.27 109.15 189.13 68.52 202.87 68.48"/>
        <path class="cls-1" d="M115.42,77.88l-9.47,31.2c-.36.49-5.04.23-6.04.26-2.08.05-4.16.2-6.26.3-.83.04-1.67-.05-2.5,0,2.66-10.65,6.6-21.08,9.35-31.71l14.93-.04Z"/>
        <path class="cls-1" d="M118.28,68.97c.23.23-1.39,5.63-1.95,6.29l-14.8.04c.47-2.13,1.08-4.34,1.95-6.29l14.8-.04Z"/>
      </g>
      <g>
        <path class="cls-1" d="M218.16,91.46c-.52-.8,1.3-2.09-1.02-2.52-1.36-.25-3.67-.02-3.47,1.9.1.97,3.51,2.21,4.48,2.61,4.24,1.75,11.88,2.49,10.37,8.76-.74,3.07-3.05,6.73-6.2,7.68-4.01,1.22-17.26,1.13-21.81.76-3.02-.24-5.8-1.23-5.36-4.81.1-.79,1.33-4.62,1.98-4.82,3.22.08,6.73-.31,9.91-.09.64.05,3.68.45,3.79.93s-1.82,2.93-.12,3.26c2.09.4,4.43-1,3.74-3.23-.45-1.46-9.07-2.94-10.96-3.69-4.97-1.98-4.5-4.36-2.91-8.9,1.19-3.4,2.75-5.83,6.66-6.18,5.42-.48,14.98-.44,20.45-.05,6.66.46,5.6,4.18,3.56,9.05-1.96.02-12.27.57-13.08-.66Z"/>
        <g>
          <path class="cls-1" d="M205.42,39.14c.8-.08.57.77,1.38,1.11.5.21.98.22,1.51.19-1.02,3.09-2.29,5.04-.81,8.3.26.56,2.2,3.75,2.54,4.01.43.34,1.11.32,1.39.58.2.19,1.49,2.84,1.9,3.47,3.28,5.03,5.53,6.07,9.46,9.92,1.36,1.33,3.5,6.51,3.4,8.39-.02.37-.42.65-.48,1.05-.27,1.67.63,3.21.79,4.83l-17.42.05c-1.12,0-3.54-3.17-3.55-4.31l-.1-37.58ZM208.9,69.25l.02,7.46c0,.4,1.2.46,1.57.39v-4.71s1.43,4.45,1.43,4.45c.44.58,1.37-.05,1.97.25l-.02-7.86h-1.57s.01,3.93.01,3.93c-.82-.41-.85-3.57-1.36-3.89-.33-.21-1.56.07-2.06-.03ZM218.2,69.23c-1.03-.22-2.68.17-3.8,0l.02,7.86c1.8.06,3.39.12,4.84-1.06l-.12,1.05c2.11.73,1.78-1.55,1.97-1.58,1.97-.32.88,1.16,1.46,1.54.26.16,1.46.1,1.68-.22s-1.25-6.58-1.23-7.59c-.46.05-2.46-.12-2.59,0-.18.18-.58,4.28-.79,4.96-1.7-1.21-.67-1.66-.42-2.93.16-.8-.15-1.86-1.03-2.04Z"/>
          <path class="cls-1" d="M232.94,48.63c-.02.1-.45.47-.52.39.02-2.34-1.93-2.61-3.03-3.65-.43-.41-2.43-6.27-2.68-7.28-.53-2.13-.48-6.46-1.21-7.98-.52-1.08-5.16-4.16-5.17-4.5.44-.8,2.05-2.76,2.27-3.47.07-.24.57-3.17.56-3.34-.1-1.33-1.92-2.21-3.14-2.23.13-.54.38-.42.78-.41,2.21.04,6.82-.18,8.67.24,1.5.34,3.39,2.77,3.4,4.2l.07,28.02Z"/>
          <path class="cls-1" d="M233.01,76.65c-.34,2.29-3.07,4.78-5.49,4.33,2.58-1.84.59-6.02.24-8.78-.13-1.07.15-2.27-.07-3.34-.18-.87-1.15-2.02-1.45-3.01-.67-2.22-.54-4.65-1.46-6.93-.51-1.26-1.44-2.13-1.86-3.38-1.35-4.03-1.51-9.24-2.85-13.42-.25-.77-1-1.52-1.04-2.12-.02-.26,1.13-4.47,1.27-4.67.06-.09,1.61-.78,1.98-.97.21-.11.25-.46.53,0,.4.68.85,4.15,1.21,5.35.26.89,2.22,5.16,1.8,5.62-.06.06-.51.03-.72.18-5.21,3.71-2.18,10.15,3.86,8.56,2.31-.61,2.29-1.93,3.36-3.43.18-.24,0-.46.6-.33l.07,26.32Z"/>
          <path class="cls-1" d="M219.5,16.32c-.06.57-1.05.29-1.33.69-.23.33-.38,1.61-.62,2.2-.21.52-.79.91-.88,1.24-.18.67.41,1.07.51,1.76.65,4.64-4.08,1.98-6.16,4.34-1.9,2.15-3.53,7.94-5.01,10.69-.17.31.01.44-.58.34l-.04-16.89c0-1.47,1.98-4.33,3.52-4.33l10.61-.03Z"/>
        </g>
      </g>
      <g>
        <path class="cls-1" d="M177.35,124.07c.38.53,1.07.75,1.24,1.5.57,2.41-1.61,7.59-3.91,8.77-2.6,1.34-11.1,1.32-14.2,1.04-1.92-.18-3.67-1.38-3.53-3.51.04-.64,1.41-4.33,1.76-5.06.71-1.48,1.65-1.94,2.92-2.84-2.31-1.13-.66-4.59.2-6.33s1.61-2.46,3.35-3.2c2.83-1.2,10.71-1.45,13.73-.75,3.92.92,2.9,4.42,1.78,7.29-.63,1.62-1.44,2.94-3.34,3.08ZM170.98,117.6c-.95.28-1.99,3.56-1.5,4.01,2.24,2.07,3.76-3.35,2.9-3.95-.31-.21-1.03-.17-1.4-.06ZM168.66,130.84c.27-.26,1.41-3.59,1.38-4-.1-1.11-2.31-1.07-3.02-.12-.17.23-1.17,3.32-1.16,3.55.05,1.13,2.18,1.16,2.8.57Z"/>
        <path class="cls-1" d="M143.84,128.35c.24.94-1.18,2.71.15,2.9,1.92.27,2.62-3.87,2.99-5.26-3.2.63-10.93,2.67-10.16-2.92.31-2.22,1.99-6.59,3.86-7.91,2.74-1.95,11.67-2.13,14.92-1.38,4.21.97,3.09,3.74,2.17,6.89-.86,2.95-2.28,7.96-3.51,10.62s-3.74,3.86-6.61,4.13c-2.11.2-9.31.34-11.15-.08-3.42-.78-2.48-4.82-.92-6.96l8.25-.02ZM146.22,121.76c.73.38,1.59.43,2.18-.24.42-.48,1.4-3.24.81-3.68-2.03-1.49-3.32,2.5-2.99,3.92Z"/>
        <path class="cls-1" d="M111.89,128.43l8.64-.02c.25.94-1.28,2.67.15,2.89,1.91.29,2.63-3.88,2.99-5.26-3.23.67-11.17,2.6-10.1-3.13.34-1.82,1.91-6,3.26-7.2,2.57-2.28,8.83-2.43,12.19-2.27,3.93.18,7.01.41,6.04,5.25-.56,2.8-2.66,8.61-3.78,11.39-.86,2.14-1.73,3.7-4,4.64s-11.65,1.16-14.08.65c-3.64-.75-2.25-4.54-1.31-6.95ZM124.63,117.71c-1.58.33-2.27,4.06-1.32,4.38,1.73.57,2.71-2.08,2.86-3.38.12-.94-.69-1.18-1.54-1Z"/>
        <path class="cls-1" d="M113.42,114.03l-7.02,21.23-9.43.02,4.94-14.29c-.88-.28-1.85-.06-2.75-.12-.39-.03-.76.21-.65-.39,1.09-.58,6.7-6.44,7.18-6.44l7.73-.02Z"/>
      </g>
    </g>
    <g>
      <path class="cls-1" d="M62.2,119.75c1.14.72,3.16,1.59,3.64,1.8,5.45,2.32,12.61,4.47,18.38,5.89.89.22,3.5.97,4.19.95.33,0,.56-.19.53-.54-9.68-3.19-18.48-8.41-27.54-12.96v1.73c-.76.13-1.19.24-1.22.33-.14.41-6.29,4.25-7.24,4.87-6.52,4.2-13.36,7.92-19.81,12.23l-20.42-17.97c0-.53,8.72-3.25,9.96-3.46.94,2.1,1.76,4.4,2.79,6.45.76,1.5,1.19,3.13,2.91,3.75,4.83,1.73,12.72-.28,16.56-3.56.27-.23,2.02-1.78,1.67-2.11-1.63.72-3.15,1.67-4.86,2.25-2.59.88-11.69,2.47-13.63.63-6.43-15.33-12.07-31.03-17.76-46.66,1.98-2.06,2.75-.2,4.37.71,10.65,6.02,24.56,4.56,33.85-3.28,2.15-1.82,3.33-4.83,6.52-3.62.35.34-2.31,3.38-2.72,3.79-7.79,7.9-21.26,10.95-31.79,7.54-2.23-.72-4.15-2.15-6.37-2.86l15.07,41.69c.21,1.61,5.38,1.11,5.53.49-.68-12.1-3.14-24.06-4.24-36.13,5.61-.23,11.05-1.83,15.95-4.49l10.11-5.8c.87-.5,1.89-.58,2.81-.27l.43-.62c-.72-.68-1.03-1.75-.66-2.76,1.87-5.11,2.79-9.93,3.07-14.38v-5.84s0-.05,0-.08c-.06,4.31-.89,8.63-2.48,12.43-.27.65-1.4,3.31-2.05,3.28-.57-.02-1.39-.53-2.03-.56-.25-.35,2.11-4.93,2.43-5.89.47-1.39.74-4.03,1.27-5.09.37-.73,2.58-2,2.21-2.94l-1.96,1.21c.07-2.16-.04-4.33-.35-6.47-.21-1.44-1.18-4.07-1.18-5.19s.56-2.91.61-4.54c.01-.32-.17-.95.15-1.05-.48-1.19-.98-2.27-1.45-3.23-.12.29-.36.49-.42.74-.05.24-.47,3.89-1.3,3.09-2.08-3.85-4.97-7.84-9.09-9.69,7.33-6.15,15.86-11.03,24.92-14.76h.01s.02-.01.02-.01c9.77-4.02,20.15-6.72,30.31-8.22.53-.08.51.16.45-.6-8.36.16-16.66,1.62-24.77,3.53-11.3,2.66-20.23,6-29.83,12.56-.95.65-5.46,4.34-5.87,4.44-.73.19-7.7-3.17-9.47-2.39l2.52-1.26,2.02-.56c.09-.11-.24-.48-.44-.51-1.52-.17-6.19,1.55-7.97,1.94-1.71.37-3.52.43-5.23.83C.42,23.93-7.53,51.74,8.16,68.85c-1.55.68-2.9,1.99-3.58,3.58l17.18,38.83.02.74c-2.02.58-9.96,1.34-11.21,2.26-.4.3-.09,3.63.06,4.19.46,1.59,9.52,8.44,10.83,10.66l13.93,12.42.7-.2,23.9-17.08,2.27-4.18-.06-.31ZM16.35,70.67c0-.31,5.13-2.16,5.6-2.14.59.02,2.86,1.46,3.85,1.78,1.3.42,4.57,1.39,5.38.22-1.31.13-5.85-1.56-6.36-2.58-.3-.59.49-.43.71-.49.68-.18,2.89-.82,3.38-.75.99.15,3.75,3.9,5.59,3.51-.46-.56-3.27-3.73-2.72-4.24l5.94-.58c1.28-.51,4.67,4.5,5.26,3.91.25-.25-2.02-3.06-1.51-3.93l6.96.61c-7.81,8.63-22.14,10.94-32.09,4.68ZM20.01,63.82c-1.02-2.46-2.47-4.82-2.76-7.54,1.53,1.1,5.72,1.14,6.95,1.98.67.45,1.18,3.29,1.82,4.08l-6.02,1.48ZM37.23,60.53c-.25.24-6.19.96-6.82.94-1.1-.04-1.31-1.02-1.36-2-.03-.64,0-.38.45-.45,2.05-.31,5.45.79,7.73.31-.4.39.04,1.16,0,1.2ZM52.03,61.71c-3.61-.4-7.21-1.09-10.87-.88,0-.76-.21-1.33.51-1.77.57-.35,5.22-.99,6.52-1.34,2.13-.58,4.12-1.6,6.29-2.03l-2.46,6.02ZM55.02,52.29c-.46.41-5.75,1.92-6.76,2.17-2.04.51-4.14.76-6.18,1.23,1.83-6.24,8.19-9.09,12.57-13.32.87,1.53,1.49,8.93.37,9.92ZM43.32,26.16c2.13.47,9.97,9.26,9.61,11.17-4.44,4.31-10.39,6.92-13.43,12.6-1.02,1.9-1.6,4-2.31,6.02-2.93.26-5.82-.18-8.73-.26-1.56-9.33,3.48-18.68,9.69-25.28.68-.72,4.54-4.39,5.18-4.24ZM28.38,21.82c3.23.18,6.43.67,9.47,1.77-8.79,7.79-16.18,18.83-14.24,31.18l-7.53-2.46c-1.49-11.4,3.72-23.1,12.3-30.49ZM7.93,32.88c3.29-4.53,7.98-8.61,13.57-9.89-3.97,3.96-7.18,8.85-8.92,14.24-.29.88-1.38,4.64-1.38,5.29v7.11c-3.42-2.03-6.62-5.66-6.68-9.84-.03-1.88,2.26-5.32,3.41-6.91ZM6.5,60.53c-2.33-4.42-3-9.15-3.17-14.08-.03-.26.57-.18.6-.15.12.1,1.08,2.04,1.53,2.56,2.04,2.4,5.27,3.66,6.56,5.1.92,1.02,1.42,4.49,2.57,5.75l3.88,4.75c-1.56,0-5.43,2.63-6.51,2.62-1.28,0-4.81-5.32-5.45-6.55Z"/>
      <path class="cls-1" d="M130.48,146.64c3.96.1,7.94-.08,11.9,0,.24-.39.89-.23,1.28-.24,38.46-.47,98.51-15.26,119.1-51.04,2.9-5.04,5.1-10.59,6.05-16.36.19-1.15.17-2.46.53-3.55v-6.3c-1.25-17.34-14.12-31.6-27.6-41.13-2.09-1.48-5.56-4.05-7.74-5.1-.28-.14-.47-.3-.83-.22v15.05c18.45,14.48,25.75,36.77,12.37,57.65-18.8,29.36-65.3,40.44-97.91,43.29-30.26,2.64-61.35.47-89.82-10.45-.35-.13-.7-.26-1.05-.4-.49-.14-2.11.98-2.25,1.28-.13.27.07.3.27.43.47.31,1.1.65,1.78.99,1.2.6,2.55,1.2,3.52,1.65,21.61,10.06,46.74,13.81,70.41,14.43Z"/>
      <path class="cls-1" d="M50.46,26.07c.29.34,1.92,1.52,1.14.14,1.05-.47,2.1-.93,3.15-1.38,13.32-5.69,27.33-9.78,41.62-12.32,36.23-6.45,73.54-3.51,107.87,9.73-.23-3.18.44-7.36,3.74-8.75.67-.28,2.17-.14,1.53-1.06-.39-.55-11.36-3.48-12.91-3.89-14.06-3.71-29.2-6.07-43.69-6.6-6.45-.24-13.86-.24-20.3,0-21.39.81-45.28,5.5-65.11,13.66-4.69,1.93-9.24,4.21-13.83,6.33-1.45.67-2.91,1.33-4.38,1.95-.09.12,1,1.97,1.19,2.19Z"/>
      <path class="cls-1" d="M139.93,19.68c6.36.43,13.48,1.34,19.77,2.4,11.04,1.86,19.2,4.56,30.89,3.68,1.36-.1,1.29-.42.11-.83-4.65-1.59-11.64-3.21-16.53-4.24-17.27-3.67-35.86-3.14-53.38-1.94-.89.06-1.79-.04-2.68,0v.7c7.27.12,14.57-.25,21.82.24Z"/>
    </g>
  </g>
</svg>