<?xml version="1.0" encoding="UTF-8"?>
<svg id="Layer_2" data-name="Layer 2" xmlns="http://www.w3.org/2000/svg" viewBox="0 0 3697.85 1540.02">
  <defs>
    <style>
      .cls-1 {
        fill: #006835;
      }

      .cls-2 {
        fill: #5c2960;
      }

      .cls-3 {
        fill: #ffc900;
      }
    </style>
  </defs>
  <g id="Layer_1-2" data-name="Layer 1">
    <g>
      <g>
        <g>
          <polygon class="cls-2" points="2124 1448 2498 1448 2457 1538 1738 1538 2156 626 1654 626 1695 536 2543 536 2124 1448"/>
          <path class="cls-2" d="M2902,1448h544l-41,90h-889l418-912h-213c-.25,0-3.89-2.84-2.14-4.08l40.14-85.92h562c.29,0,3.82,2.82,2.21,4.14l-421.21,907.86Z"/>
          <polygon class="cls-2" points="2298 1408 2201 1408 2605 536 2699 536 2298 1408"/>
          <polygon class="cls-2" points="2978 1408 3383 536 3477 536 3075 1408 2978 1408"/>
        </g>
        <g>
          <path d="M3420,170h140l63-152h72c.62,0,3.54,2.98,2.71,4.59l-159.29,392.82-3.41,4.59h-77l72-178h-140l-73,178h-77l165-402h72c.5,0,3.77,3.08,2.71,4.63l-59.71,147.37Z"/>
          <path d="M2409,18h74c.24,0,3.9,2.85,2.13,4.07l-102.07,250c-18.94,42.98-23.47,89.59,38.03,86.03,55.59-3.22,77.67-38.3,97.85-84.15,36.03-81.9,65.48-167.03,100.67-249.33.71-1.63,4.45-6.6,5.4-6.6h74c.29,0,3.83,2.82,2.21,4.14l-108.86,267.21c-37.61,94.03-131.88,156.64-234.8,140.09-88.16-14.17-83.65-77.16-59.05-145.94,30.89-86.34,73.09-171.05,104.51-257.49l5.99-8.01Z"/>
          <path d="M3196,420h-84l8-82h-131l-60,82h-81l280.37-384.63,14.63-17.37h84l-31,402ZM3128,268l17-154.02-107,154.02h90Z"/>
          <path d="M3040,18l-27.92,73.08-111.09,2.91-130.99,326.01h-80l132-328h-108c9.7-24.8,18.15-50.75,31-74h295Z"/>
        </g>
        <g>
          <path class="cls-2" d="M2198,2l-200.32,435.67-847.71,1.3-288.97,649.03h-257c8.81-98.14,57.38-192.89,135.03-253.51,2.58.21,15.04,16.33,17.76,19.72,6.98,8.68,15.76,25.06,22.32,31.68,1.66,1.67,1.84,2.82,4.86,2.11L1187,2h1011Z"/>
          <path class="cls-2" d="M1676,1538h-341l-69.93-276.13-241.11,1.09-126.96,275.04h-115l5.65-17.35,451.46-980.54,2.86-3.14h154.06s3.91,6.09,3.91,6.09c90.91,331.95,186.77,662.6,276.06,994.94ZM1248,1174l-65-260.02-119,260.02h184Z"/>
          <path class="cls-2" d="M1551,536c3.76,1.14,10.74,29.8,12.43,35.57,74.05,252.22,138.51,507.42,212.01,759.81l-53.72,121.34-8.7,13.29-256.02-930.01h94Z"/>
          <polygon class="cls-2" points="2354 0 2151 438 2054 438 2257 0 2354 0"/>
          <path class="cls-2" d="M846,1144c-3.72,94.89-44.89,185.5-107.07,256.01-67.39-51.26-116.2-135.85-130.35-219.59-1.16-6.85-4.82-26.29-4.49-31.62.12-1.85,1.68-4.8,2.9-4.8h239Z"/>
        </g>
      </g>
      <g>
        <path class="cls-1" d="M450,697c2.09-6.76,38.93.38,46.37,1.63,46.73,7.85,92.99,24.78,134.23,47.77,9.78,5.45,63.9,39.34,65.25,46.87.48,2.71-33.42,32.71-38.87,38.7-148.28,162.52-145.2,416.6,6,576.06,4.82,5.08,33.8,29.83,33.03,32.91-57.3,47.37-127.64,82.33-201.58,94.48-7.43,1.22-36.22,5.85-41.1,4.27-1.1-.36-3.31-1.97-3.31-2.69v-840Z"/>
        <path class="cls-3" d="M394,694v846c-89.47-6.69-177.05-41.43-243.97-101,82.74-69.25,137.24-172.1,147.94-280.03,14.23-143.61-40.91-262.89-141.93-360.09-1.86-1.79-6.06-2.73-6.07-3.91-.06-5.68,41-33.26,48.2-37.81,58.15-36.72,127-58.78,195.83-63.17Z"/>
        <path class="cls-2" d="M242,1144c-3.73,87.53-47.43,178.34-110.95,238.05-2.57,2.41-19,17.57-20.33,17.8-5.96,1.04-41.54-50.5-46.77-58.81C27.5,1283.06,6.74,1217.12.09,1148.8c-.46-1.67,2.05-4.8,2.91-4.8h239Z"/>
        <path class="cls-2" d="M242,1088H0c6.7-82.95,36.37-164,87.21-229.79,2.94-3.8,19.04-24.33,21.77-24.33,77.11,59.49,127.59,156.39,133.03,254.12Z"/>
      </g>
    </g>
  </g>
</svg>