<?xml version="1.0" encoding="UTF-8"?>
<svg id="Layer_2" data-name="Layer 2" xmlns="http://www.w3.org/2000/svg" viewBox="0 0 2920.4 2635.4">
  <defs>
    <style>
      .cls-1 {
        fill: #ce5b1a;
      }

      .cls-2 {
        fill: #f7f6f6;
      }

      .cls-3 {
        fill: #083a20;
      }

      .cls-4 {
        fill: #960526;
      }

      .cls-5 {
        fill: #f49a05;
      }

      .cls-6 {
        fill: #e8eeeb;
      }

      .cls-7 {
        fill: #f89908;
      }

      .cls-8 {
        fill: #bb753d;
      }

      .cls-9 {
        fill: #03391f;
      }

      .cls-10 {
        fill: #be763b;
      }

      .cls-11 {
        fill: #114027;
      }
    </style>
  </defs>
  <g id="Layer_1-2" data-name="Layer 1">
    <path class="cls-3" d="M1515.82,0c22.61,11.82,43.94,33.75,49.18,59.34,5.62,27.46-11.76,84.5,1.6,104.87,4.45,6.79,15.95,10.31,21.58,16.74,8.96,10.25,47.4,65.99,52.03,69.31,3.09,2.21,43.49,11.3,54.33,15.9,34.5,14.64,75.71,54.21,100.15,82.91,32.49,38.15,25.36,88.64-10.63,121.41-18.93,17.24-43.63,42.78-61.87,57.33-10,7.98-45.98,24.47-47.78,26.72-5.08,6.33-16.78,62.94-11.69,71.28,2.9,4.75,51.87,39.76,61.8,48.89,11.18,10.28,18.18,32.97,33.88,25.77,5.65-2.59,41.91-39.92,53.47-48.91,104.85-81.5,227.48-133.42,361-90,139.77-185.72,404.5-286.16,631.85-224.2l115.69,252.76c-18.4,127.44-51.33,253.21-72.14,380.59-54.6-11.47-108.93-44.05-166-29.77l103.36,222.28c45.11,184.96-77.04,362.42-239.89,440.41,2.35,29.13,11.08,59.79,13.03,88.76,28.24,418.8-327.51,651.95-700.85,703.96-336.68,46.9-674.02-31.26-967.8-195.22-42.12,80.15-143.49,163.02-236.19,170.43-36.5,2.92-68.97-3.49-104.46-8.7-17.4,142.15-149.58,240.21-280.96,272.51H123.75L.29,2545.99c.61-8.34-.9-17.3,0-25.55,1.39-12.77,9.23-34.26,11.46-50.28,10.96-78.95,25.45-157.32,36.15-236.32,5.1-15.88,40.9,9.02,54.56,5.55-155.44-179.58-11.48-434.39,194.91-488.36,12.85-3.36,61.4-8.57,64.16-10.28,13.64-8.41-22.79-57.78-28.67-70.21-273.56-578.69,256.39-966.03,784.96-993.57,45.21-2.36,117.54,7.45,157.37-.14,3.02-.58,39.09-29.15,40.83-31.52,7.19-9.78-4.45-73.29-11.1-83.17-3.64-5.42-43.97-24.27-55.08-34.32-15.15-13.71-17.2-29.5-24.64-37.09-8.43-8.59-28.59-12.77-41.43-28.81-15.94-19.9-21.21-46.39-16.06-71.42,3.84-18.66,51.15-82.04,67.03-94.74,31.6-25.27,80.05-29.3,97.08-41.27,1.85-1.3,8.42-20.01,13.75-26.72,16.48-20.75,60.97-56.21,63.93-80.81,6.71-55.82-27.21-110.5,42.48-146.98"/>
    <path class="cls-3" d="M1588.19,630.11c2.28.65,6.09,7.1,12.74,4.25,5.4-3.92,18.26-100.21,27.88-114.77,5.16-7.81,51.78-22.46,66.02-36.15,11.08-10.64,10.6-24.53,18.7-32.39,12.28-11.92,42.85-11.5,48.36-36.9,7.25-33.47-16.2-32.81-31.13-47.98-7.57-7.69-9.57-17.92-16.77-25.78-26.08-28.47-92.54-44.59-130.04-46.65,14.28-36.65-2.92-31.74-17.04-48.94-7.3-8.89-12.48-23.13-21.38-29.7-7.44-5.49-26.58-8.58-28.85-11.64-2.65-3.58-9.35-71.46-9.55-81.94-.34-17.65,6.83-42.21,4.44-55.35-4.95-27.27-49.2-23.67-54.71,5.12,13.3,43.04,1.66,88.17-1.23,132.47-31.98,4.25-35.79,22.47-52.48,43.43-4,5.02-12.64,6.9-15.27,11.2-12.37,20.29,5.65,33.83,4.47,35.32-4.69,5.92-109.16,16.01-138.1,55.64-9.6,13.15-16.26,25.81-27.31,40.8-33.4,45.29,31.35,48.15,42.39,62.85,8.82,11.75.17,23.33,23.02,40.84,14.64,11.22,49.04,19.01,55.31,25.57,12.28,12.85,22,101.19,27.71,123.48,8.06,3.03,12.46-2.81,17-4.28,7.58-2.45,15.26-8.01,17.03-8.52,15.88-4.51,51.94-11.32,68.11-12.77,6.86-.62,14.31.04,21.29,0,25.14-.13,43.89,3.72,68.11,8.52,7.22,1.43,14.12,2.22,21.29,4.26Z"/>
    <path class="cls-3" d="M2486.43,1575.28c142.61-58.52,265.43-193.24,255.62-355.69-3.62-59.92-58.27-155.25-86.56-211.46-16.88-33.54-34.96-66.81-54.2-99.07,39.9-20.93,88.89-26.91,133.63-22.95,14,1.24,64.93,16.98,68.36,16.23,3.02-.66,4.89-4.1,5.78-7.05l59.25-296.59-100.62-213.7c-136.06-40.39-299.35,7.98-417.13,81.55-72.6,45.35-114.43,92.54-158.64,164.92-4.76,7.8-7.92,28.28-16.55,17.26-5.23-6.68-13.22-31.32-19.66-35.95-18.51-13.33-86.22-14.25-109.85-12.43-83.06,6.39-171.54,62.25-232.12,116.97-11.41,10.3-48.84,46.05-53.22,57.83-4.02,10.82,3.74,18.28,6.45,29.51,2.71,11.24,6.73,22.54,8.51,34.06,14.03,90.35-23.92,177.9-97.91,229.91-7.37,5.18-18.09,12.98-25.54,17.03-20.36,11.07-71.93,30.91-93.66,34.06-34.66,5.02-105.28-5.2-140.48-17.03-21.06-7.08-63.58-28.96-80.88-42.58-7.09-5.58-26.13-25.91-34.06-34.06-6.72-6.91-11.84-22.96-18.58-20.8l-232.59,155.07c-3.01,12.22,65.74,60.37,70.19,70.15,8.91,19.6-2,59.14-2.1,80.82l-120.51-114.35-198.72,144.25c-1.69,6.23,1.67,7.08,4.14,10.66,10.74,15.58,65.35,59.66,67.4,73.22l-16.27,154.46c-42.9-35.51-69.61-99.94-130.83-109.67-114.35-18.17-226.35,92.18-273.55,186.3-8.9-16.12-22.47-34.28-29.8-51.09-23.51-53.97-29-106.71-42.57-161.79-1.45-56.69-1.2-110.51,15.82-165.12,13.14-42.14,48.58-109.05,77.84-141.42,83.33-92.2,211.25-156.5,331.14-186.12,136.37-33.69,278.49-39.92,418.09-26.78-5.42-42.44-7.55-85.76,2-127.85,2.37-10.45,26.25-65.38,23.55-67.95-308.68-8.32-684.09,91.34-857.43,366.48-21.9,34.76-31.25,59.78-45.06,97.56-12.78,34.98-23.89,61.81-29.29,100.57-5.07,36.38-8.86,80.62-.51,116.57-.03,1.42.04,2.84,0,4.26-.1,3.81-.17,4.63,0,8.52,2.27,52.85,16.06,103.6,34.06,153.27,3,8.27,5.5,18.21,8.51,25.55,2.74,6.67,9.64,14.44,12.77,21.29,15.79,34.54,31.85,69.46,51.09,102.18-5.3,10.32-14.7,60.6-19.74,64.25-9.91,7.19-36.59,2.33-49.99,4.38-183.69,28.07-361.08,254.75-209.74,410.97,21.31,22,91.58,51.29,54.1,89.04-18.62,18.75-41.52,17.99-65.06,13.43-9.51-1.84-34.57-15.98-39.62-7.45l-32.25,223.8c34.19,18.86,70.39,60.66,109.48,65.39,173.44,20.96,388.59-149.02,320.96-335.85,8.59-8.48,40.89,31.85,49.04,38.19,116.25,90.63,253.74-28.91,316.22-126.31,7.51-11.7,6.84-29.67,22.3-20.61,18.71,10.97,6.02,33.72,42.39,15.03,180.17,96.47,376.47,168.45,581.14,191.54,297.04,33.51,676.12-27.17,881.23-263.85,123.71-142.76,150.9-330.47,104.24-510.96Z"/>
    <path class="cls-3" d="M1643.53,872.79v-61.73c0-18.65-21.92-69.26-32.27-86.94-15.21-25.98-58.6-77.72-88.94-81.35-48.4-5.79-99.83,6.08-142.77,27.78,100.14,12.3,184.66,78.49,187.69,184.87l76.29,17.36Z"/>
    <path class="cls-3" d="M1706.98,889.4c1.38-1.22,9.81-25.4,15.6-33.35,5.63-7.73,25.24-22.56,26.4-28.48,1.54-7.85-13.33-43.67-18-52.89-27.34-54.01-87.38-101.14-144.97-118.93,13.53,23.3,32.42,41.1,45.47,65.18,18.69,34.5,29.26,73.05,31.47,112.39.56,10.03-5.19,43.83-1.97,47.6,1.52,1.78,43.84,10.4,46,8.49Z"/>
    <path class="cls-3" d="M1545.61,847.25c-1.46-93.69-85.62-150.38-172.96-156.98-29.86-2.26-45.22,14.95-63.35,37.72-12.6,15.82-38.18,59.84-40.26,79.12-.98,9.08.73,4.63,5.8,6.53,19.2,7.21,40.17,2.07,60.01,3.85,70.83,6.37,140.69,18.59,210.76,29.76Z"/>
    <path class="cls-3" d="M1545.62,868.57c-92.31-17.91-186.15-34.53-280.52-33.63-11.43,49.04,8.19,100.97,31.4,144.36,101.62,30.92,224.94,6.92,249.13-110.73Z"/>
    <path class="cls-3" d="M1754.19,906.83l-2.09-55.31c-20.55,22.1-48.43,53.57,2.09,55.31Z"/>
    <path class="cls-3" d="M1319.99,1004.81c17.77,32.05,89.79,79.87,125.71,81.03,37.76,1.23,106.14-40.84,131.88-68.26,17.64-18.8,66.93-97.84,61.17-121.05-2.47-9.97-63.67-18.77-76.08-23.76-17.19,115.69-139.6,153.34-242.68,132.04Z"/>
    <path class="cls-3" d="M1498.79,1094.18h61.73c11.83,0,60.25-18.31,73.15-24.76,16.31-8.16,69.09-45.74,75.9-60.5,4.06-8.81-10.87-50.15-12.48-67.4-.81-8.7,4.17-19.16,1.33-27.71-2.87-8.63-30.74-10.13-39.93-15.53-13.2,67.82-52.73,128.16-108.98,167.88l-50.72,28.04Z"/>
    <path class="cls-3" d="M1724.46,979.22c21.13-20.26,36.82-62.88-8.55-59.61-2.2,21.49,1.49,39.65,8.55,59.61Z"/>
    <path class="cls-3" d="M1039,945.19l-53.36,33.87-5.38,7.39-17.85,175.83c4.93,5.44,54.87-31.44,58.81-45.47,7.69-27.39-27.11,11.83-33.36,4.98,7.9-15.82.81-39.61,8.67-54.11,4.63-8.54,20.48-9.87,25.23-31.24,3.72-16.72-17.47,6.44-21.04,2.37.97-13.64-2.52-29.75,1.83-42.83,6.15-18.51,42.47-21.53,36.44-50.79Z"/>
    <path class="cls-3" d="M936.83,1017.56l-25.61,15.74-16.89,180.09c11.98-6.94,65.86-38.31,51.02-55.33l-25.5,12.73,16.98-153.23Z"/>
    <path class="cls-3" d="M817.68,1268.71c4.14,4.64,18.27-10.39,20.25-15.89,14.34-39.89,5.56-112.19,18.97-155.59,13.36-14.03,29.55-17.26,24.57-41.38-10.74,9.67-68.59,45.35-71.61,53.93-1.95,5.56-.47,12.51-.69,18.42l21.22-12.75-12.71,153.25Z"/>
    <path class="cls-3" d="M796.35,1124c-4.33-4.35-13.29,3.65-17.11,6.26-12.25,8.35-73.16,50.71-59.47,66.08l25.5-12.73-16.98,153.23c11,.27,20.37-7.21,22.76-17.64l20.71-158.1c6.31-5.39,33.36-28.29,24.6-37.09Z"/>
    <path class="cls-3" d="M660.16,1392.18c14.47-.53,21.89-16.64,24.52-28.66l17.99-171.42c-93.95,43.54-77.28,151.89-89.33,238.4,44.08-11.71,10.75-93.95,48.99-110.64,9.64-4.21,4.77,5.3,4.47,8.7-1.88,21.2-7.87,42.11-6.63,63.62Z"/>
    <path class="cls-3" d="M604.78,1273.01l-54.54,41.21-17.79,180.14c4.83,4.98,69.31-39.2,55.28-59.58l-27.65,21.27c2.01-13.71-.59-39.94,3.01-52.34,2.38-8.22,59.52-58.25,3.44-32.79,5.44-14.61,1.45-35.32,5.08-48.1,4.53-15.93,41.13-23.28,33.17-49.8Z"/>
    <path class="cls-3" d="M494.16,1417.75c30.03-5.47,37.11-75.26-1.58-54.77-21.12,11.19-33.96,38.68-36.3,61.59-4.88,47.67,8.87,26.68,25.21,42.01,6.96,6.52.06,60.94-10.85,66.08-14.79,6.98.62-39.5-2.09-42.52-26.6-3.82-33.63,58.17-18.55,63.27,43.07,14.59,64.24-64.99,54.99-97.74-4.6-16.27-26.28-6.81-28.15-23.11-1.04-9.08,6.76-44.88,15.2-48.85,13.88-6.52-.91,30.05,2.11,34.02Z"/>
    <path class="cls-3" d="M2307.44,1149.31c-70.39,32.85-187.6,14.66-208.41-72.12,34.09-10.2,64.19-1.02,97.54,3.89l19.51-97.57,91.36,165.81Z"/>
    <path class="cls-9" d="M1903.21,2277.76c-106.93-229.63-177.17-476.9-212.81-728.03,38.45,41.93,54.88,100.06,105.01,131.23,108.79,67.64,257.33,11.54,323.34-89.02,72.14,22.42,153.96,26.02,228.8,16.87,29.09-3.55,77.35-12.17,104.82-20.76,67.69,256.08-50.45,473.65-273.85,596.78-88.6,48.83-176.47,74.47-275.31,92.94Z"/>
    <path class="cls-9" d="M979.42,2124.49c45.65-25.37,89.24-55.5,136.27-78.72,12.43-26.13,5.41-55.74,12.76-83.05,8.08-7.23,45.41,47.18,56.65,46.15l105.06-50.4-59.58,272.46c-87.7-27.28-170.82-61.95-251.17-106.44Z"/>
    <path class="cls-3" d="M1515.82,2137.27c.06.7,3.91,4.84,4.45,10.29,4.65,47.2,6.09,95.59,8.32,142.98-44.69-4.48-75.15-9.05-119.2-17.03l10.57-106.51c29.35-16.65,63.46-22.39,95.86-29.73Z"/>
    <path class="cls-11" d="M677.15,1238.96c-3.35,26.37,4.17,62.82-29.75,68.08-.72-22.12,6.09-42.41,18.76-60.08,3.56-4.96.07-10.48,10.99-8Z"/>
    <path class="cls-3" d="M1494.53,1792.41c6.82,87.81,11.23,176.03,16.98,263.92-28.93,1.92-57.5,8.77-85.09,17.08l17.64-265.48c3.51-10.9,39.35-12.74,50.47-15.51Z"/>
    <path class="cls-3" d="M1681.84,2299.05c-30.41.14-60.07-2.84-89.4-4.26l-25.54-204.36h74.5l40.44,208.62Z"/>
    <path class="cls-11" d="M1737.18,2299.05c-8.49.33-17.05-.2-25.54,0l-112.77-685.5c9.82-.22,9.16,8.09,10.92,14.62,24.13,89.41,34.42,207.04,52.1,301.27,23.17,123.54,47.61,247.07,75.29,369.61Z"/>
    <path class="cls-11" d="M1473.24,1298.54c1.46,48.34,7,101.63,8.69,150.97,3.06,89.37,4.85,178.53,8.51,268.11-.74,4.49-36.38,5.06-42.74,6.67,2.58-50.27,1.98-101.02,4.08-151.32,3.43-82.05,2.94-179.58,13.14-259.53,1.02-7.97-5.4-17.29,8.32-14.91Z"/>
    <polygon class="cls-3" points="1613.73 1898.85 1639.27 2052.12 1562.64 2052.12 1545.61 1898.85 1613.73 1898.85"/>
    <path class="cls-11" d="M1609.47,1869.04h-68.11l-8.53-123.49c12.37,2.28,47.54-4,55.65,1.86,8,5.78,14.82,104.08,21,121.63Z"/>
    <path class="cls-11" d="M1583.95,1715.79l-55.32-.06c-.01-15.83-13.42-113.74-8.33-118.96,1.99-2.04,43.78-8.07,48.99-.46,3.4,4.97,18.91,115.21,14.66,119.47Z"/>
    <path class="cls-11" d="M1515.79,1571.04l-8.65-137.69c1.68-7.15,38.58-12.76,42.11-.07l17.15,131.03c-2.83,12.01-40.15,4.96-50.6,6.74Z"/>
    <path class="cls-11" d="M1507.91,1404.37c-2.31-1.44-4.48-14.4-4.87-18.51-3.17-33.68-7.98-113.45-4.34-144.88,4.23-36.5,23.06-26.07,28.78,5.45,8.81,48.58,6.47,103.01,17.63,151.83-2.03,8.67-32.4,9.1-37.2,6.11Z"/>
    <path class="cls-11" d="M1669.07,438.52c-.49-.26,2.55-6-5.84-9.29-12.23-4.81-14.39-1.43-23.96.78.78-17.51-18.51-11.49-29.8-8.52-.35-2.4,1.14-7.07-.26-8.17-1.17-.92-28.13-5.37-29.33-4.49s-4.84,21.01-8.72,25.39c14.34-.1,24.35-9.05,38.31-12.73.78,5.35-.58,11.52.02,17.01,11.05.74,19.17-6.05,29.78-8.5-.18,4.06-6.11,15.24-4.24,17l34.04-8.49-4.24,17.01,25.49-4.22c12.17,13.91-49.61,49.61-63.83,46.82.71-1.26-.3-5.85,0-8.52,2.03-17.81-39.55-25.48-54.29-28.72-35.31-7.77-37.97,8.87-35.15-43.65l-23.35,34.04-17.05-38.34-10.69,38.36-29.71-34.05c-1.3,6.78,1.69,36.58-.08,38.28-3.81,3.66-82.02,3.98-102.18,23.58-3.69,3.59-4.03,5.61-4.21,10.52-.16,4.46,2.14,8.95,4.26,12.77-24.24-6.54-59.9-15.95-68.09-42.55l34.02,4.21-2.16-16.91,36.22,8.39-4.23-16.97,40.48,12.65-4.36-25.36,48.98,16.91c2.03-2.06-7.55-32.58-9-33.53-4.85-3.17-53.89,7.52-63.39,10.09-22.59,6.1-81.12,42.92-75.86.98,1.4-11.15,15.27-17.79,24.85-22.19,74.25-34.04,259.7-30.89,337.2-5.21,19.51,6.47,57.89,20.59,49.66,47.15-3.1,10.02-22.37,2.13-29.29-1.53Z"/>
    <path class="cls-11" d="M1701.63,350.6c15.35,16.62,8.87,17.41,31.02,34.87,21.44,16.9,12.35,38.18-10.46,44.48-9.83,2.71-4.72-17.85-15.01-27.41-59.41-55.18-364.5-53.24-428.76-3.45-11.52,8.93-14.72,15.79-13.8,30.95-44.13-6.77-33.68-29.76-.97-45.72,89.14-43.5,223.49-32.7,320.25-35.24l-76.63-8.45c-.9-4.75,1.35-19.98.04-21.33-1.2-1.24-30.67-.8-34.38,1.85-6.62,4.72-1.05,18.83-6.37,19.71-30.33,5.02-14.92-13.13-18.85-17.31-1.17-1.24-32.92-1.22-34.1.01-1.55,1.61,1.59,19.75.04,21.34-.89.9-24.38.41-25.3-.51-1.79-1.78,2.26-11.63-2.59-12.58-3.3-.64-26.38-.53-27.32.46-1.81,1.9,3.16,17.12-6.98,20.69-22.6,7.97-8.27-14.25-20.76-12.26-13.16,2.11-9.43,14.63-13.28,17.31-2.44,1.7-54.87,18.67-57.04,16.64-.45-6.36,5.8-15.61,9.96-19.79,64.96-65.12,368.2-72.54,431.26-4.26Z"/>
    <path class="cls-11" d="M1570.78,264.32c3.52,4.99-8.26,33.24-10.81,33.94-5.5,1.52-58.97-2.37-61.15-4.52-1.76-1.74,1.59-19.62-.01-21.28-2.36-2.46-65.72,1.87-68.16,4.26-1.53,1.49,1.58,19.79,0,21.33-.58.57-14.68.73-16.33-.8-1.37-1.28-.58-8.29-3.18-11.64-4.2-5.4-17.04-4.31-8.33-17.58,15.49-23.62,140.4-20.1,167.96-3.71Z"/>
    <path class="cls-11" d="M1494.17,64.22c8.32,6.1-4.47,27.83-4.27,40.07.57,34.89,12.07,74.34,8.7,110.03,21.24,10.86,41.18,5.24,51.27,32.57-41.45-4.98-86.33-13.59-125.63,4.21-2.8-32.47,41.89-27.58,45.24-32.17,9.73-13.33,2.72-97.6,12.53-119.11.23-10.52-12.16-17.77-8.5-29.09,2.31-7.14,16.66-9.44,20.65-6.52Z"/>
    <g>
      <path class="cls-4" d="M1766.98,804.67c-2.71-11.23-10.47-18.69-6.45-29.51,4.38-11.78,41.81-47.53,53.22-57.83,60.58-54.72,149.06-110.58,232.12-116.97,23.63-1.82,91.33-.9,109.85,12.43,6.43,4.63,14.42,29.27,19.66,35.95,8.63,11.01,11.78-9.46,16.55-17.26,44.21-72.39,86.04-119.57,158.64-164.92,117.78-73.57,281.07-121.93,417.13-81.55l100.62,213.7-59.25,296.59c-.89,2.95-2.76,6.39-5.78,7.05-3.43.75-54.37-15-68.36-16.23-44.75-3.96-93.74,2.02-133.63,22.95,19.24,32.26,37.33,65.53,54.2,99.07,28.29,56.22,82.94,151.54,86.56,211.46,9.81,162.45-113.01,297.17-255.62,355.69-7.07,2.9-27.76,10.8-34.06,12.77-27.48,8.59-75.74,17.21-104.82,20.76-74.84,9.15-156.66,5.55-228.8-16.87-66,100.56-214.55,156.66-323.34,89.02-50.13-31.17-66.56-89.29-105.01-131.23,35.64,251.14,105.89,498.4,212.81,728.03-46.73,8.73-79.95,13.45-127.71,17.03-92.41-387.05-177.79-778.15-217.11-1175.07,21.73-3.15,73.3-22.99,93.66-34.06-18.52,126.6-43.75,353.86,70.34,442.68,91.88,71.53,220.76,4.06,285.35-72.05l40.17-289.74c-34.09,38.7-102.9,135.55-159.78,81.08-49.79-47.67-23.67-176.24,1.57-232.96,31.97-71.81,116.97-171.04,200.77-107.84l42.33-269.84c-3.97-13.3-65.19-12.23-78.63-11.31-114.11,7.75-214.71,97.94-287.19,178.98ZM2733.36,400.19c-191.77-24.8-452.98,82.14-529.95,268.31-50.58,122.35-31.92,214.16,55.21,310.79,26.06,28.9,85.1,69.86,91.31,108.75,20.14,126.1-170.96,114.36-238.07,61.5-.95,33.61-54.93,279.55-42.75,287.47,15.42,10.02,111.62,11.6,134.18,10.5,163.95-8.01,335.29-83.12,400.14-242.71,47.85-117.75,36.16-224.7-55.07-315.18-41.78-41.44-125.63-71.39-90.58-145.53,29.28-61.94,122.96-75.24,183.97-71.33,10.86.7,38.24,11.83,42.78,4.38l48.84-276.94ZM2307.44,1149.31l-91.36-165.81-19.51,97.57c-33.35-4.91-63.45-14.09-97.54-3.89,20.81,86.78,138.02,104.98,208.41,72.12Z"/>
      <path class="cls-4" d="M451.54,1656.17c47.2-94.12,159.21-204.47,273.55-186.3,61.22,9.73,87.93,74.16,130.83,109.67l16.27-154.46c-2.05-13.56-56.66-57.64-67.4-73.22-2.47-3.58-5.83-4.43-4.14-10.66l198.72-144.25,120.51,114.35c.09-21.68,11.01-61.22,2.1-80.82-4.45-9.78-73.2-57.93-70.19-70.15l232.59-155.07c6.74-2.15,11.86,13.89,18.58,20.8l-212.85,136.31,62.96,62.54c-2.16,50.06-5.21,100.96-11.92,150.26l-143.15-144.45-154.47,117.38c-1.72,10.13,65.25,57.9,55.33,80.26l-59.86,606.73,174.41-105.49c12.58-117.76,22.45-236.04,29.91-354.3,4.08-4.78,22.23,15.49,25.63,19.03,7.02,7.3,45.66,50.52,46.62,55.56l.05,46.69-16.97,180.96c61.28-22.19,117.36-61.06,176.71-89.32l61.67-728.09c17.31,13.61,59.83,35.5,80.88,42.58-20.95,383.11-82.38,762.41-161.77,1136.75-8.77-2.54-16.98-5.85-25.54-8.52l59.58-272.46-105.06,50.4c-11.24,1.03-48.58-53.38-56.65-46.15-7.34,27.31-.33,56.92-12.76,83.05-47.03,23.22-90.62,53.35-136.27,78.72-18.79,10.44-42.48,25.26-59.6,34.06-36.36,18.69-23.68-4.06-42.39-15.03-15.46-9.07-14.79,8.9-22.3,20.61-62.48,97.4-199.97,216.94-316.22,126.31-8.14-6.35-40.44-46.67-49.04-38.19,67.63,186.83-147.52,356.81-320.96,335.85-39.1-4.72-75.29-46.53-109.48-65.39l32.25-223.8c5.05-8.52,30.11,5.61,39.62,7.45,23.54,4.56,46.45,5.32,65.06-13.43,37.48-37.75-32.79-67.04-54.1-89.04-151.34-156.22,26.05-382.9,209.74-410.97,13.4-2.05,40.09,2.81,49.99-4.38,5.03-3.65,14.44-53.94,19.74-64.25.35.6,5.95-.9,7.33.68,1.14,1.31,6.83,29.53,9.7,33.38-25.48,93.81-38.86,194.01-25.03,291.12,19.67,138.05,102.51,224.44,237.49,132.11,151.2-103.43,207.32-386.57,168.59-555.26-57.19-249.07-287.17-95.1-351.25,55.39-5.18-8.49-11.49-15.51-17.03-25.55ZM374.91,1817.94c-156.44.21-324.15,189.61-234.96,339.31,25.64,43.04,98.22,68.31,94.74,118.32-2.25,32.41-45.46,60.39-74.91,61.99-13.54.73-42.31-12.01-46.81-4.62l-27.53,166.18c162.08,32.5,355.55-133.38,304.26-302.12-20.85-68.61-69.46-79.18-108.39-121.51-47.78-51.97,34.8-101.95,85.11-87.21l8.49-170.34Z"/>
      <path class="cls-10" d="M1775.5,838.73c80.59-94.59,188.59-196.21,323.35-182.88l-29.64,208.45c-89.38-31.22-172.64,63.8-205.04,137.62-32.18,73.31-65.01,252.82,34.8,285.96,48.83,16.21,72.18-11.41,110.58-34.08l-30.83,190.52c-53,64.68-162.38,118-238.67,62.12-102.06-74.74-77.06-316.26-57.75-426.73,1.41-8.07,9.38-12.49-4.71-11.06,73.99-52.01,111.94-139.56,97.91-229.91Z"/>
      <path class="cls-5" d="M345.12,1192.1c13.81-37.79,23.16-62.81,45.06-97.56,173.34-275.14,548.75-374.81,857.43-366.48,2.71,2.57-21.18,57.51-23.55,67.95-9.55,42.09-7.42,85.41-2,127.85-139.6-13.15-281.72-6.91-418.09,26.78-119.89,29.62-247.81,93.92-331.14,186.12l-25.52.02c13.7,51.7-35.99,18.88-38.31,21.26-.89.91,3.17,15.25-13,18.98-9.49,2.19-18.88-4.55-24.52-1.23-15.79,9.29,6.24,30.54-7.26,33.32-8.74,1.8-11.28-15.01-19.09-17.01Z"/>
      <path class="cls-7" d="M1337.02,1060.12l-61.67,728.09c-59.35,28.26-115.43,67.13-176.71,89.32l16.97-180.96-.05-46.69c-.96-5.03-39.6-48.26-46.62-55.56-3.4-3.54-21.56-23.81-25.63-19.03-7.46,118.26-17.34,236.54-29.91,354.3l-174.41,105.49,59.86-606.73c9.93-22.35-57.05-70.13-55.33-80.26l154.47-117.38,143.15,144.45c6.71-49.29,9.77-100.2,11.92-150.26l-62.96-62.54,212.85-136.31c7.92,8.15,26.97,28.48,34.06,34.06ZM1311.46,1055.89l-174.45,112.79c-.09,4.34,46,39.68,46.76,51.28l-17.06,219.06-172.98-169.98-107.64,78.9c6.81,29.51,49.41,37.9,42.52,72.07l-55.6,559.71,115.1-66.67,33.9-405.87c7.09-1.61,8.62,2.28,12.67,6.45,38.24,39.41,74.11,82.55,109.86,124.3,1.71,64.3-9.2,128.55-11.82,192.8,38.26-19.85,79.56-37.57,114.1-62.53,13.64-99.87,20.04-200.78,26.38-301.45l38.26-410.86Z"/>
      <path class="cls-7" d="M1766.98,804.67c72.48-81.04,173.08-171.23,287.19-178.98,13.44-.91,74.65-1.98,78.63,11.31l-42.33,269.84c-83.8-63.2-168.81,36.02-200.77,107.84-25.25,56.72-51.36,185.29-1.57,232.96,56.89,54.47,125.69-42.38,159.78-81.08l-40.17,289.74c-64.6,76.11-193.48,143.57-285.35,72.05-114.09-88.82-88.87-316.08-70.34-442.68,7.45-4.05,18.18-11.85,25.54-17.03,14.09-1.42,6.12,2.99,4.71,11.06-19.31,110.47-44.31,351.98,57.75,426.73,76.29,55.88,185.67,2.55,238.67-62.12l30.83-190.52c-38.4,22.67-61.75,50.29-110.58,34.08-99.81-33.14-66.98-212.65-34.8-285.96,32.4-73.81,115.66-168.83,205.04-137.62l29.64-208.45c-134.76-13.33-242.76,88.3-323.35,182.88-1.79-11.52-5.8-22.82-8.51-34.06Z"/>
      <path class="cls-5" d="M349.37,1575.28c3.13-11.18,4.11-20.63,16.97-25.54,5.1,4.96,5.16,24.06,6.29,25.62,4.86,6.67,15.06-2.66,19.22,6.29-18,35.56-6.92,17.45,2.94,15.56,1.54-.29,21.3,8.23,26.96,7.88,7.33,16.81,20.9,34.97,29.8,51.09,5.54,10.03,11.85,17.06,17.03,25.55,5.62,9.2,9.05,17.69,17.03,29.8,18.79,28.55,39.94,66.57,68.11,85.15,1.53,10.94,10.14,20.27,21.29,21.29-.07,14.87,30.51,43.01,42.57,55.35-14.92,8.8-30.11-3.9-34.06,16.99,37.39-.21,37.05,8.88,8.51,29.85-2.44-2.42-16.36-5.77-19.18-17.01-4.48,1.1-1.4,8.87-2.11,12.75-15.53,1.62-4.15-3.64-4.62-10.89-.58-9.03-15.8-22.56-25.18-23.17-3.43-21.9-65.43-76.08-80.88-97.92-.31-.43,4.35-4.16.39-10.62-5.97-9.74-20.89-13.87-21.68-14.92-2.87-3.85-8.56-32.07-9.7-33.38-1.37-1.58-6.97-.08-7.33-.68-19.24-32.72-35.29-67.64-51.09-102.18,5.94-6.65-3.26-23.39-12.77-21.29-3.01-7.34-5.52-17.27-8.51-25.55ZM391.89,1626.34c9.22-21.64-13.37-21.64-4.15,0h4.15Z"/>
      <path class="cls-5" d="M472.83,1136.75c-29.25,32.37-64.7,99.27-77.84,141.42-17.03,54.61-17.28,108.43-15.82,165.12-.12-.47-5.31-1.87-6.86-6.21-2.25-6.33,7.4-49.54-1.51-55.69-1.58-1.09-33.07.75-38.46-1.92l2.15,21.22c-12.61-1.01-2.86-26.17-12.73-21.22-12.27,6.15,1.71,22.01-6.45,29.76-8.35-35.94-4.56-80.18.51-116.57,5.4-38.75,16.5-65.58,29.29-100.57,7.82,2,10.36,18.81,19.09,17.01,13.49-2.78-8.53-24.02,7.26-33.32,5.64-3.32,15.03,3.41,24.52,1.23,16.17-3.73,12.11-18.06,13-18.98,2.32-2.39,52.01,30.44,38.31-21.26l25.52-.02Z"/>
      <path class="cls-5" d="M315.32,1409.23c8.16-7.75-5.82-23.61,6.45-29.76,9.87-4.95.12,20.22,12.73,21.22l-2.15-21.22c5.4,2.67,36.88.82,38.46,1.92,8.9,6.15-.74,49.37,1.51,55.69,1.54,4.34,6.74,5.74,6.86,6.21,13.57,55.07,19.06,107.82,42.57,161.79-5.65.35-25.42-8.17-26.96-7.88-9.86,1.89-20.94,20-2.94-15.56-4.15-8.94-14.36.39-19.22-6.29-1.13-1.55-1.19-20.66-6.29-25.62-12.86,4.91-13.83,14.37-16.97,25.54-18-49.67-31.78-100.42-34.06-153.27l4.14-6.41-4.14-2.11c.04-1.42-.03-2.84,0-4.26ZM345.16,1400.72c9.29-3.61,10.11-7.06,2.06-12.75l-2.06,12.75Z"/>
      <path class="cls-6" d="M660.16,1392.18c-1.24-21.5,4.76-42.42,6.63-63.62.3-3.4,5.17-12.91-4.47-8.7-38.25,16.69-4.92,98.93-48.99,110.64,12.06-86.51-4.61-194.86,89.33-238.4l-17.99,171.42c-2.63,12.02-10.04,28.13-24.52,28.66ZM677.15,1238.96c-10.92-2.48-7.43,3.04-10.99,8-12.67,17.66-19.49,37.96-18.76,60.08,33.92-5.26,26.41-41.71,29.75-68.08Z"/>
      <path class="cls-6" d="M494.16,1417.75c-3.02-3.97,11.77-40.54-2.11-34.02-8.44,3.96-16.24,39.77-15.2,48.85,1.87,16.3,23.55,6.84,28.15,23.11,9.25,32.75-11.92,112.32-54.99,97.74-15.08-5.11-8.05-67.09,18.55-63.27,2.71,3.02-12.7,49.5,2.09,42.52,10.9-5.15,17.81-59.56,10.85-66.08-16.34-15.32-30.09,5.67-25.21-42.01,2.34-22.91,15.19-50.41,36.3-61.59,38.69-20.49,31.61,49.29,1.58,54.77Z"/>
      <path class="cls-6" d="M1039,945.19c6.04,29.26-30.29,32.28-36.44,50.79-4.35,13.08-.86,29.19-1.83,42.83,3.57,4.07,24.76-19.09,21.04-2.37-4.75,21.37-20.6,22.71-25.23,31.24-7.86,14.5-.76,38.29-8.67,54.11,6.24,6.85,41.05-32.37,33.36-4.98-3.94,14.02-53.88,50.91-58.81,45.47l17.85-175.83,5.38-7.39,53.36-33.87Z"/>
      <path class="cls-6" d="M604.78,1273.01c7.96,26.52-28.65,33.87-33.17,49.8-3.63,12.77.37,33.49-5.08,48.1,56.08-25.46-1.06,24.58-3.44,32.79-3.6,12.4-1,38.63-3.01,52.34l27.65-21.27c14.03,20.38-50.44,64.56-55.28,59.58l17.79-180.14,54.54-41.21Z"/>
      <path class="cls-6" d="M796.35,1124c8.76,8.8-18.29,31.7-24.6,37.09l-20.71,158.1c-2.39,10.44-11.76,17.91-22.76,17.64l16.98-153.23-25.5,12.73c-13.69-15.36,47.22-57.73,59.47-66.08,3.83-2.61,12.79-10.61,17.11-6.26Z"/>
      <path class="cls-6" d="M817.68,1268.71l12.71-153.25-21.22,12.75c.22-5.91-1.26-12.87.69-18.42,3.02-8.59,60.87-44.26,71.61-53.93,4.98,24.12-11.21,27.35-24.57,41.38-13.41,43.4-4.63,115.69-18.97,155.59-1.98,5.51-16.11,20.54-20.25,15.89Z"/>
      <path class="cls-6" d="M936.83,1017.56l-16.98,153.23,25.5-12.73c14.84,17.01-39.04,48.38-51.02,55.33l16.89-180.09,25.61-15.74Z"/>
      <path class="cls-5" d="M357.89,1600.82c9.51-2.1,18.71,14.64,12.77,21.29-3.13-6.85-10.03-14.61-12.77-21.29Z"/>
      <path class="cls-5" d="M315.32,1422.01c-.17-3.89-.1-4.71,0-8.52l4.14,2.11-4.14,6.41Z"/>
      <path class="cls-7" d="M2733.36,400.19l-48.84,276.94c-4.54,7.45-31.92-3.68-42.78-4.38-61.01-3.91-154.68,9.38-183.97,71.33-35.05,74.15,48.8,104.1,90.58,145.53,91.23,90.48,102.92,197.43,55.07,315.18-64.85,159.59-236.19,234.7-400.14,242.71-22.56,1.1-118.76-.48-134.18-10.5-12.18-7.92,41.8-253.86,42.75-287.47,67.11,52.86,258.21,64.6,238.07-61.5-6.21-38.89-65.25-79.85-91.31-108.75-87.13-96.62-105.79-188.43-55.21-310.79,76.97-186.17,338.19-293.11,529.95-268.31ZM2699.3,425.74c-203.75-8.62-461.79,113.66-492.69,335.38-19.04,136.7,65.83,173.53,137.25,260.63,124.87,152.29-88.15,242.41-210.73,170.36l-33.75,221.06c205.08,29.6,456.23-56.94,496.48-284.05,13.71-77.36,4.81-133.48-45.7-194.46-53.43-64.5-163.8-100.08-117.94-203.36,33.01-74.34,155.39-98.86,228.6-84.29l38.49-221.27Z"/>
      <path class="cls-7" d="M374.91,1817.94l-8.49,170.34c-50.31-14.74-132.9,35.24-85.11,87.21,38.93,42.33,87.53,52.9,108.39,121.51,51.28,168.74-142.18,334.63-304.26,302.12l27.53-166.18c4.51-7.38,33.28,5.36,46.81,4.62,29.45-1.59,72.66-29.58,74.91-61.99,3.48-50.01-69.1-75.29-94.74-118.32-89.19-149.7,78.52-339.1,234.96-339.31ZM345.1,1852c-111.6,14.98-209.52,120.74-200.21,236.45,6.87,85.41,88.63,91.5,111.77,152.17,28.72,75.32-50.24,132.29-119.92,122.51l-17.22,110.45c134.32,1,260.15-103.78,247.07-244.96-8.88-95.87-125.86-115.76-128.08-183.02-1.83-55.58,54.21-82.25,100.51-91.12l6.08-102.48Z"/>
      <path class="cls-7" d="M438.77,1758.35c.79,1.05,15.71,5.18,21.68,14.92,3.96,6.46-.7,10.19-.39,10.62-21.32,104.22-39.72,235.5,2.2,336.27,38.88,93.47,108.38,85.32,180.49,31.64,138.84-103.37,191.8-384.39,143.01-542.5-60.59-196.37-263.63-10.46-300.16,102.21-7.97-12.11-11.41-20.6-17.03-29.8,64.08-150.5,294.07-304.46,351.25-55.39,38.73,168.69-17.38,451.83-168.59,555.26-134.98,92.33-217.82,5.95-237.49-132.11-13.84-97.12-.45-197.31,25.03-291.12Z"/>
      <path class="cls-5" d="M2486.43,1575.28c46.67,180.49,19.48,368.2-104.24,510.96-205.11,236.68-584.18,297.36-881.23,263.85-204.67-23.09-400.97-95.06-581.14-191.54,17.12-8.8,40.81-23.62,59.6-34.06,80.34,44.48,163.46,79.16,251.17,106.44,8.56,2.66,16.77,5.98,25.54,8.52,21.19,6.12,42.4,11.87,63.86,17.03,30.58,7.35,58.98,11.52,89.4,17.03,44.05,7.98,74.51,12.55,119.2,17.03,22.18,2.22,43.34,3.27,63.86,4.26,29.33,1.41,58.99,4.4,89.4,4.26,9.92-.05,19.89.23,29.8,0,8.5-.2,17.06.33,25.54,0,14.53-.57,27.22-3.43,38.31-4.26,47.76-3.58,80.99-8.3,127.71-17.03,98.84-18.47,186.71-44.11,275.31-92.94,223.41-123.13,341.54-340.7,273.85-596.78,6.3-1.97,26.99-9.87,34.06-12.77Z"/>
      <path class="cls-10" d="M1311.46,1055.89l-38.26,410.86c-6.34,100.67-12.74,201.58-26.38,301.45-34.54,24.97-75.84,42.69-114.1,62.53,2.62-64.26,13.53-128.51,11.82-192.8-35.74-41.74-71.61-84.89-109.86-124.3-4.05-4.17-5.58-8.06-12.67-6.45l-33.9,405.87-115.1,66.67,55.6-559.71c6.89-34.17-35.71-42.56-42.52-72.07l107.64-78.9,172.98,169.98,17.06-219.06c-.75-11.6-46.85-46.94-46.76-51.28l174.45-112.79Z"/>
      <path class="cls-10" d="M460.06,1783.89c15.45,21.84,77.46,76.02,80.88,97.92,5.91,37.8-11.38,156.43,45.59,169.39,88.88,20.21,108.32-147.33,111.88-205.62,3.15-51.67,10.23-216.78-81.86-179.77-33.23,13.36-67.49,97.66-62.84,130.85-28.17-18.58-49.32-56.6-68.11-85.15,36.53-112.68,239.57-298.58,300.16-102.21,48.78,158.11-4.18,439.13-143.01,542.5-72.11,53.69-141.6,61.84-180.49-31.64-41.92-100.77-23.52-232.05-2.2-336.27Z"/>
      <path class="cls-7" d="M553.71,1796.67c-4.65-33.19,29.61-117.49,62.84-130.85,92.09-37.01,85.01,128.09,81.86,179.77-3.56,58.29-23,225.83-111.88,205.62-56.98-12.96-39.68-131.59-45.59-169.39,9.38.62,24.61,14.15,25.18,23.17.46,7.24-10.91,12.51,4.62,10.89-.46,2.5.15,5.71,0,8.52-.4,7.23-.24,6.27,0,12.77.76,20.92-.88,39.77,5.47,60.52,17.13,55.93,50.42,20.37,66.9-13.68,14.84-30.66,12.4-41.6,17.03-72.38,8.95-59.49,19.94-123.33,6.64-183.33-17.24-77.77-60.06-30.37-75.95,18.22-4.67,14.29-15.78,58.3-15.84,71.44-11.15-1.02-19.75-10.35-21.29-21.29Z"/>
      <path class="cls-4" d="M660.14,1911.62h-4.26c-11.29-14.05-25.77-25.49-38.31-38.32-12.06-12.34-42.64-40.48-42.57-55.35.06-13.14,11.16-57.15,15.84-71.44,15.88-48.59,58.71-95.99,75.95-18.22,13.3,60,2.31,123.84-6.64,183.33Z"/>
      <path class="cls-4" d="M592.03,1920.13c3.75,3.71,5.64,11.37,9.98,15.54,10.62,10.19,25.73,20.79,36.84,31.29-.26,1.04,5.93,12.55,4.26,17.03-16.48,34.06-49.76,69.61-66.9,13.68-6.35-20.75-4.72-39.59-5.47-60.52v-12.77c.15-2.8-.46-6.02,0-8.52.71-3.88-2.37-11.65,2.11-12.75,2.82,11.24,16.73,14.59,19.18,17.01Z"/>
      <path class="cls-7" d="M617.57,1873.3c12.54,12.83,27.03,24.27,38.31,38.32.88,16.67-5.28,32.37-9.65,48.01-1.48,5.29-7.25,6.84-7.38,7.34-11.11-10.5-26.23-21.1-36.84-31.29-4.34-4.17-6.24-11.83-9.98-15.54,28.54-20.96,28.87-30.05-8.51-29.85,3.95-20.88,19.13-8.19,34.06-16.99Z"/>
      <path class="cls-5" d="M391.89,1626.34h-4.15c-9.22-21.64,13.37-21.64,4.15,0Z"/>
      <path class="cls-5" d="M345.16,1400.72l2.06-12.75c8.05,5.69,7.22,9.14-2.06,12.75Z"/>
      <path class="cls-10" d="M2699.3,425.74l-38.49,221.27c-73.21-14.57-195.59,9.95-228.6,84.29-45.86,103.28,64.51,138.85,117.94,203.36,50.52,60.99,59.41,117.1,45.7,194.46-40.24,227.12-291.39,313.66-496.48,284.05l33.75-221.06c122.58,72.06,335.6-18.07,210.73-170.36-71.42-87.1-156.3-123.93-137.25-260.63,30.89-221.72,288.94-344.01,492.69-335.38Z"/>
      <path class="cls-10" d="M345.1,1852l-6.08,102.48c-46.31,8.87-102.35,35.55-100.51,91.12,2.22,67.26,119.2,87.15,128.08,183.02,13.08,141.18-112.75,245.96-247.07,244.96l17.22-110.45c69.68,9.78,148.64-47.19,119.92-122.51-23.13-60.67-104.9-66.76-111.77-152.17-9.3-115.71,88.61-221.47,200.21-236.45Z"/>
      <g>
        <path class="cls-2" d="M1558.39,1119.72c39.32,396.92,124.7,788.02,217.11,1175.07-11.09.83-23.78,3.69-38.31,4.26-27.69-122.53-52.12-246.07-75.29-369.61-17.67-94.23-27.97-211.86-52.1-301.27-1.76-6.53-1.1-14.84-10.92-14.62l112.77,685.5c-9.91.23-19.88-.05-29.8,0l-40.44-208.62h-74.5l25.54,204.36c-20.51-.99-41.68-2.03-63.86-4.26-2.23-47.39-3.68-95.78-8.32-142.98-.54-5.45-4.39-9.59-4.45-10.29-.98-11.65,1.45-24.99,0-36.29-.8-6.26,2.4-7.11-6.07-6.03-32.91,4.17-71.54,13.54-102.56,25.23-13.46,5.07-59.05,25.34-67.16,33.89-10.61,11.18-16.89,83.35-20.04,102.42-21.46-5.16-42.67-10.91-63.86-17.03,79.39-374.34,140.82-753.64,161.77-1136.75,35.2,11.83,105.82,22.05,140.48,17.03ZM1473.24,1298.54c-1.56-51.62,1.28-103.59-.12-155.28-7.27-22.77-25.77-19.14-29.4,4.42-9.19,198.42-27.7,396.33-47.09,593.62,3.26,3.5,43.83-15.17,51.06-17.01,6.36-1.62,42-2.19,42.74-6.67-3.66-89.58-5.45-178.74-8.51-268.11-1.69-49.34-7.23-102.63-8.69-150.97ZM1507.91,1404.37c4.79,2.99,35.16,2.56,37.2-6.11-11.16-48.83-8.81-103.25-17.63-151.83-5.72-31.52-24.55-41.95-28.78-5.45-3.64,31.43,1.17,111.2,4.34,144.88.39,4.11,2.56,17.08,4.87,18.51ZM1515.79,1571.04c10.45-1.78,47.77,5.28,50.6-6.74l-17.15-131.03c-3.52-12.69-40.42-7.07-42.11.07l8.65,137.69ZM1583.95,1715.79c4.25-4.26-11.27-114.51-14.66-119.47-5.21-7.61-47-1.58-48.99.46-5.09,5.22,8.32,103.13,8.33,118.96l55.32.06ZM1609.47,1869.04c-6.18-17.55-13-115.85-21-121.63-8.11-5.86-43.28.42-55.65-1.86l8.53,123.49h68.11ZM1494.53,1792.41c-.98-12.61.72-25.69.01-38.34-20.07-2.38-100.52,19.34-105.65,37-3.92,13.52-3.16,45.53-5.66,62.46-12.47,84.64-25.13,169.34-37.67,253.93,25.93-14.22,52.43-25.51,80.84-34.06,27.59-8.31,56.16-15.16,85.09-17.08-5.75-87.89-10.16-176.11-16.98-263.92ZM1613.73,1898.85h-68.11l17.03,153.27h76.63l-25.54-153.27Z"/>
        <path class="cls-5" d="M1426.42,2073.4c-28.41,8.55-54.91,19.84-80.84,34.06,12.53-84.58,25.2-169.28,37.67-253.93,2.49-16.93,1.73-48.95,5.66-62.46,5.13-17.67,85.57-39.38,105.65-37,.7,12.65-.99,25.73-.01,38.34-11.12,2.77-46.97,4.61-50.47,15.51l-17.64,265.48Z"/>
        <path class="cls-5" d="M1473.24,1298.54c-13.72-2.38-7.3,6.93-8.32,14.91-10.2,79.95-9.72,177.47-13.14,259.53-2.1,50.3-1.5,101.05-4.08,151.32-7.23,1.84-47.8,20.51-51.06,17.01,19.38-197.3,37.9-395.2,47.09-593.62,3.63-23.56,22.12-27.19,29.4-4.42,1.4,51.69-1.44,103.66.12,155.28Z"/>
        <path class="cls-5" d="M1319.99,2256.48c3.15-19.07,9.43-91.24,20.04-102.42,8.11-8.55,53.7-28.81,67.16-33.89,31.02-11.69,69.66-21.06,102.56-25.23,8.46-1.07,5.27-.22,6.07,6.03,1.44,11.3-.99,24.64,0,36.29-32.4,7.34-66.51,13.08-95.86,29.73l-10.57,106.51c-30.42-5.51-58.82-9.68-89.4-17.03Z"/>
        <g>
          <path class="cls-8" d="M1545.62,868.57c-24.19,117.65-147.51,141.65-249.13,110.73-23.21-43.39-42.83-95.32-31.4-144.36,94.38-.9,188.21,15.72,280.52,33.63Z"/>
          <path class="cls-8" d="M1545.61,847.25c-70.08-11.18-139.93-23.4-210.76-29.76-19.84-1.78-40.81,3.36-60.01-3.85-5.07-1.9-6.78,2.54-5.8-6.53,2.09-19.28,27.66-63.3,40.26-79.12,18.13-22.77,33.5-39.98,63.35-37.72,87.34,6.6,171.5,63.3,172.96,156.98Z"/>
          <path class="cls-8" d="M1319.99,1004.81c103.08,21.3,225.49-16.35,242.68-132.04,12.41,4.98,73.61,13.79,76.08,23.76,5.76,23.21-43.53,102.25-61.17,121.05-25.74,27.42-94.12,69.49-131.88,68.26s-107.94-48.98-125.71-81.03Z"/>
          <path class="cls-8" d="M1643.53,872.79l-76.29-17.36c-3.03-106.38-87.55-172.57-187.69-184.87,42.93-21.7,94.36-33.58,142.77-27.78,30.34,3.63,73.73,55.37,88.94,81.35,10.35,17.67,32.27,68.28,32.27,86.94v61.73Z"/>
          <path class="cls-5" d="M1626.5,489.61c-.3,2.67.71,7.25,0,8.52-2.5,4.42-8.9,5.38-12.8,14.86-13.06,31.69-16.76,82.77-25.51,117.12-7.17-2.04-14.06-2.83-21.29-4.26l25.53-110.67-93.6,8.53-.04,93.63c-6.97.04-14.42-.62-21.29,0l-1.86-93.94c-4.67-6.7-72.68-3.98-87.52-8.22l21.27,114.93c-1.77.5-9.45,6.07-17.03,8.52-11.48-36.66-13.1-85.19-26.64-120.27-4.22-10.92-9.65-12.32-11.67-15.97-2.12-3.83-4.42-8.32-4.26-12.77,82.7-30.73,194.17-31.55,276.71,0Z"/>
          <path class="cls-8" d="M1498.79,1094.18l50.72-28.04c56.25-39.72,95.78-100.06,108.98-167.88,9.19,5.41,37.06,6.9,39.93,15.53,2.84,8.55-2.14,19.01-1.33,27.71,1.61,17.26,16.54,58.6,12.48,67.4-6.81,14.77-59.59,52.34-75.9,60.5-12.9,6.45-61.32,24.76-73.15,24.76h-61.73Z"/>
          <path class="cls-8" d="M1706.98,889.4c-2.17,1.91-44.49-6.71-46-8.49-3.22-3.77,2.53-37.56,1.97-47.6-2.21-39.33-12.78-77.89-31.47-112.39-13.04-24.08-31.94-41.88-45.47-65.18,57.59,17.79,117.63,64.92,144.97,118.93,4.67,9.23,19.54,45.04,18,52.89-1.16,5.92-20.76,20.75-26.4,28.48-5.79,7.94-14.22,32.13-15.6,33.35Z"/>
          <path class="cls-2" d="M1477.5,617.34c-16.18,1.45-52.24,8.27-68.11,12.77l-21.27-114.93c14.84,4.24,82.86,1.52,87.52,8.22l1.86,93.94Z"/>
          <path class="cls-2" d="M1498.79,617.34l.04-93.63,93.6-8.53-25.53,110.67c-24.22-4.8-42.97-8.65-68.11-8.52Z"/>
          <path class="cls-8" d="M1724.46,979.22c-7.05-19.96-10.75-38.11-8.55-59.61,45.36-3.27,29.68,39.35,8.55,59.61Z"/>
          <path class="cls-8" d="M1754.19,906.83c-50.51-1.74-22.64-33.21-2.09-55.31l2.09,55.31Z"/>
          <path class="cls-6" d="M1349.79,489.61c.18-4.91.52-6.93,4.21-10.52,20.16-19.6,98.37-19.93,102.18-23.58,1.77-1.7-1.21-31.5.08-38.28l29.71,34.05,10.69-38.36,17.05,38.34,23.35-34.04c-2.82,52.53-.16,35.89,35.15,43.65,14.75,3.24,56.32,10.91,54.29,28.72-82.54-31.55-194.01-30.73-276.71,0Z"/>
          <path class="cls-6" d="M1392.36,638.63c-4.54,1.46-8.95,7.31-17,4.28-5.71-22.28-15.42-110.63-27.71-123.48-6.27-6.56-40.68-14.35-55.31-25.57-22.85-17.52-14.2-29.1-23.02-40.84-11.04-14.7-75.79-17.56-42.39-62.85,11.05-14.99,17.71-27.65,27.31-40.8,28.95-39.63,133.41-49.73,138.1-55.64,1.18-1.49-16.84-15.03-4.47-35.32,2.62-4.3,11.27-6.18,15.27-11.2,16.69-20.97,20.5-39.19,52.48-43.43,2.9-44.3,14.53-89.43,1.23-132.47,5.51-28.79,49.76-32.39,54.71-5.12,2.39,13.13-4.79,37.69-4.44,55.35.2,10.48,6.9,78.37,9.55,81.94,2.27,3.06,21.41,6.15,28.85,11.64,8.9,6.57,14.08,20.82,21.38,29.7,14.12,17.19,31.32,12.29,17.04,48.94,37.5,2.07,103.95,18.18,130.04,46.65,7.2,7.86,9.2,18.09,16.77,25.78,14.92,15.16,38.38,14.51,31.13,47.98-5.5,25.4-36.08,24.98-48.36,36.9-8.1,7.86-7.62,21.75-18.7,32.39-14.25,13.69-60.86,28.33-66.02,36.15-9.62,14.56-22.48,110.86-27.88,114.77-6.65,2.85-10.46-3.6-12.74-4.25,8.75-34.35,12.45-85.43,25.51-117.12,3.91-9.48,10.31-10.44,12.8-14.86,14.22,2.79,76-32.91,63.83-46.82l-25.49,4.22,4.24-17.01-34.04,8.49c-1.87-1.76,4.06-12.94,4.24-17-10.61,2.45-18.73,9.24-29.78,8.5-.6-5.49.76-11.66-.02-17.01-13.96,3.68-23.97,12.63-38.31,12.73,3.88-4.38,7.54-24.53,8.72-25.39s28.17,3.58,29.33,4.49c1.4,1.1-.09,5.76.26,8.17,11.29-2.97,30.58-9,29.8,8.52,9.57-2.21,11.73-5.59,23.96-.78,8.39,3.3,5.35,9.04,5.84,9.29,6.92,3.66,26.19,11.55,29.29,1.53,8.23-26.57-30.14-40.69-49.66-47.15-77.5-25.68-262.94-28.83-337.2,5.21-9.59,4.4-23.46,11.04-24.85,22.19-5.26,41.94,53.27,5.13,75.86-.98,9.5-2.57,58.54-13.26,63.39-10.09,1.45.95,11.04,31.47,9,33.53l-48.98-16.91,4.36,25.36-40.48-12.65,4.23,16.97-36.22-8.39,2.16,16.91-34.02-4.21c8.19,26.6,43.85,36.01,68.09,42.55,2.02,3.66,7.45,5.05,11.67,15.97,13.55,35.07,15.17,83.61,26.64,120.27ZM1494.17,64.22c-3.99-2.92-18.34-.62-20.65,6.52-3.66,11.32,8.72,18.56,8.5,29.09-9.81,21.51-2.8,105.77-12.53,119.11-3.35,4.59-48.04-.3-45.24,32.17,39.3-17.79,84.18-9.19,125.63-4.21-10.09-27.33-30.03-21.71-51.27-32.57,3.37-35.7-8.13-75.14-8.7-110.03-.2-12.25,12.58-33.97,4.27-40.07ZM1570.78,264.32c-27.57-16.39-152.47-19.91-167.96,3.71-8.71,13.27,4.13,12.18,8.33,17.58,2.6,3.34,1.8,10.35,3.18,11.64,1.64,1.53,15.74,1.38,16.33.8,1.58-1.54-1.53-19.84,0-21.33,2.44-2.39,65.8-6.73,68.16-4.26,1.6,1.66-1.75,19.55.01,21.28,2.18,2.15,55.65,6.04,61.15,4.52,2.55-.7,14.33-28.95,10.81-33.94ZM1701.63,350.6c-63.06-68.29-366.3-60.87-431.26,4.26-4.16,4.17-10.41,13.42-9.96,19.79,2.17,2.03,54.6-14.94,57.04-16.64,3.85-2.68.12-15.2,13.28-17.31,12.49-2-1.84,20.22,20.76,12.26,10.14-3.57,5.17-18.79,6.98-20.69.94-.99,24.02-1.1,27.32-.46,4.85.95.8,10.8,2.59,12.58.93.92,24.42,1.42,25.3.51,1.55-1.58-1.6-19.72-.04-21.34,1.18-1.23,32.93-1.26,34.1-.01,3.93,4.18-11.48,22.33,18.85,17.31,5.31-.88-.25-14.98,6.37-19.71,3.72-2.65,33.19-3.08,34.38-1.85,1.31,1.35-.95,16.59-.04,21.33l76.63,8.45c-96.76,2.54-231.11-8.26-320.25,35.24-32.71,15.96-43.17,38.95.97,45.72-.92-15.16,2.27-22.02,13.8-30.95,64.26-49.79,369.35-51.73,428.76,3.45,10.29,9.56,5.18,30.13,15.01,27.41,22.81-6.3,31.9-27.58,10.46-44.48-22.15-17.46-15.67-18.24-31.02-34.87Z"/>
        </g>
      </g>
      <path class="cls-5" d="M643.11,1984c1.67-4.48-4.52-15.99-4.26-17.03.13-.5,5.89-2.05,7.38-7.34,4.38-15.64,10.53-31.34,9.65-48.01h4.26c-4.63,30.77-2.19,41.72-17.03,72.38Z"/>
      <path class="cls-1" d="M570.74,1937.16c-.24-6.51-.4-5.54,0-12.77v12.77Z"/>
    </g>
  </g>
</svg>