<?xml version="1.0" encoding="UTF-8"?>
<svg id="Layer_1" xmlns="http://www.w3.org/2000/svg" version="1.1" xmlns:cc="http://creativecommons.org/ns#" xmlns:dc="http://purl.org/dc/elements/1.1/" xmlns:rdf="http://www.w3.org/1999/02/22-rdf-syntax-ns#" viewBox="0 0 258.6 262.4">
  <!-- Generator: Adobe Illustrator 29.7.1, SVG Export Plug-In . SVG Version: 2.1.1 Build 8)  -->
  <defs>
    <style>
      .st0 {
        fill: #b95915;
      }

      .st1 {
        fill: #f9a01b;
      }

      .st2 {
        fill: #e56020;
      }

      .st3 {
        fill: #4a2a8b;
      }
    </style>
  </defs>
  <path class="st3" d="M100.5,10.1c-15,0-25.8,3.5-30.2,21l-34.2,135.6h155.6c8.5,0,16.9-6.8,18.8-15.1L243.3,10.1H100.5ZM208.8,151.1c-1.8,7.6-9.4,13.7-17,13.7H38.5L72.2,31.6c3.5-14.3,11.2-19.7,28.3-19.7h140.4l-32.2,139.2Z"/>
  <path class="st3" d="M240.9,11.9l-32.2,139.2c-1.8,7.6-9.4,13.7-17,13.7H38.5L72.2,31.6c3.5-14.3,11.2-19.7,28.3-19.7h140.4Z"/>
  <polygon class="st3" points="61.5 242.6 65.9 248.5 98.1 248.5 111.2 196.7 98 196.7 86.7 241.2 75 241.2 86.3 196.7 69.6 196.7 68.5 197.5 71.9 202.1 61.5 242.6"/>
  <polygon class="st3" points="62.6 214.8 65.7 202.3 61.4 196.4 35 196.4 27.8 202.3 23.4 219.7 45.7 229.1 42.7 241.2 31.1 241.2 32.4 235.6 20.7 230.2 17.6 242.6 21.8 248.5 48.3 248.5 55.5 242.6 60 225.1 37.7 215.8 40.7 203.8 52.3 203.8 50.9 209.5 62.6 214.8"/>
  <polygon class="st3" points="153.8 202.3 149.5 196.4 117.3 196.4 104.3 248.3 117.5 248.3 128.6 203.8 140.4 203.8 129.2 248.3 145.8 248.3 146.9 247.3 143.6 242.9 153.8 202.3"/>
  <polygon class="st3" points="194.7 214.8 197.9 202.3 193.5 196.4 167.1 196.4 159.9 202.3 155.5 219.7 177.8 229.1 174.8 241.2 163.1 241.2 164.5 235.6 152.9 230.2 149.7 242.6 153.9 248.5 180.5 248.5 187.7 242.6 192.1 225.1 169.8 215.8 172.8 203.8 184.4 203.8 183 209.5 194.7 214.8"/>
  <polygon class="st3" points="20.7 230.2 25.5 237.4 24.5 241.6 26.9 244.8 45.6 244.8 49.3 241.9 55.5 242.6 48.3 248.5 21.8 248.5 17.6 242.6 20.7 230.2"/>
  <polygon class="st3" points="42.7 241.2 49.3 241.9 53 227.2 30.5 217.7 34.2 203 27.8 202.3 23.4 219.7 45.7 229.1 42.7 241.2"/>
  <polygon class="st3" points="56.4 200 38.1 200 34.2 203 40.7 203.8 52.3 203.8 50.9 209.5 57.8 207.4 58.9 203.4 56.4 200"/>
  <polygon class="st3" points="152.9 230.2 157.7 237.4 156.6 241.6 159 244.8 177.7 244.8 181.4 241.9 187.7 242.6 180.5 248.5 153.9 248.5 149.7 242.6 152.9 230.2"/>
  <polygon class="st3" points="174.8 241.2 181.4 241.9 185.1 227.2 162.6 217.7 166.3 203 159.9 202.3 155.5 219.7 177.8 229.1 174.8 241.2"/>
  <polygon class="st3" points="188.5 200 170.1 200 166.3 203 172.8 203.8 184.4 203.8 183 209.5 189.9 207.4 190.9 203.4 188.5 200"/>
  <polygon class="st3" points="68.5 197.5 78.8 200 68.4 241.6 70.8 244.8 92.4 244.8 98.1 248.5 65.9 248.5 61.5 242.6 71.9 202.1 68.5 197.5"/>
  <polygon class="st3" points="98 196.7 103.7 200 92.4 244.8 86.7 241.2 98 196.7"/>
  <polygon class="st3" points="123.1 200 117.3 196.4 104.3 248.3 117.5 248.3 111.7 244.8 123.1 200"/>
  <polygon class="st3" points="136.5 244.8 147 203.4 144.6 200 123.1 200 128.6 203.8 140.4 203.8 129.2 248.3 145.8 248.3 146.9 247.3 136.5 244.8"/>
  <path class="st3" d="M41.1,180.8l-3.5,1,1.1-4.6h3.2l-.8,3.6ZM34.9,174.6l-.4.2,1.1,1.4-3.4,13.7h4.7l.2-.4-1.1-1.3.8-3.6,7.2-2.3,1.4-6-1.4-1.8h-9.2Z"/>
  <polygon class="st3" points="73.1 174.6 69.6 174.6 68.3 180.1 64.9 181 66.5 174.6 61.9 174.6 61.5 174.8 62.6 176.3 59.3 190 62.7 190 64.2 183.8 67.5 183.1 65.9 190 70.4 190 70.8 189.6 69.7 188.3 73.1 174.6"/>
  <path class="st3" d="M93.6,187.4h-3.2l2.5-10.3h3.2l-2.5,10.3ZM92,174.6l-2.3,1.8-2.9,11.6,1.4,1.9h6.2l2.3-1.9,2.9-11.6-1.4-1.8h-6.2Z"/>
  <polygon class="st3" points="152.7 176.4 151.3 174.6 143 174.6 139.3 190 142.8 190 145.9 177.1 149.1 177.1 146 190 150.6 190 150.9 189.6 149.9 188.3 152.7 176.4"/>
  <polygon class="st3" points="174.1 174.6 169.4 174.6 169.1 174.8 170.3 176.3 166.9 190 171.5 190 171.8 189.6 170.7 188.3 174.1 174.6"/>
  <polygon class="st3" points="198.7 188.4 196.9 182.4 203 174.6 199.7 174.6 196.2 179.3 195 174.6 190.4 174.6 190.1 174.8 191.9 176.3 193.7 182.5 187.9 190 191.1 190 194.5 185.4 195.7 190 200.3 190 200.6 189.6 198.7 188.4"/>
  <polygon class="st3" points="121.5 187.4 117.6 187.4 118.5 183.5 121.8 183.5 122.4 181 119.1 181 120.1 177.1 123.8 177.1 124.8 178.4 125.1 178.2 126 174.6 116.1 174.6 115.8 174.8 116.9 176.3 113.5 190 122.5 190 123.3 186.4 123.1 186.1 121.5 187.4"/>
  <polygon class="st1" points="42.7 162.2 130.2 114.4 70.8 162.2 142.9 120.8 141.7 129.2 153.7 122.5 180.8 148.2 195.2 104.8 216.1 103.4 205.5 77.2 224.4 62.4 199.9 52.8 206.1 26.5 185.4 36 174.6 13.4 157.9 30 127.9 16.6 123.8 43.3 97.1 49.2 112.9 58.7 96.9 66.7 110.5 67.9 54.8 111.1 110.9 81.4 50.9 127.1 114.7 93.8 46.4 145.1 121.7 105 42.7 162.2"/>
  <path class="st2" d="M202.8,77.5c-1,24-21.3,42.7-45.4,41.6-24-1-42.7-21.3-41.6-45.4,1-24,21.3-42.6,45.2-41.6,24.1,1,42.8,21.3,41.8,45.4Z"/>
  <path class="st0" d="M164.6,113.3c-24-1-42.7-21.2-41.8-45.2.4-10.7,4.8-20.9,12.2-28.6-20,13.4-25.4,40.5-12,60.5,7.7,11.5,20.5,18.7,34.3,19.3,12.4.5,24.4-4.3,33.1-13.2-7.6,5.1-16.7,7.7-25.9,7.2Z"/>
  <path d="M202.8,76.2c0-1.5,0-3-.1-4.6-2.7-1.9-5.8-3.2-9-3.6-.7,0-1.3-.1-2-.1-.4-2.9-1-5.7-1.9-8.5.4,0,.9.1,1.3.1,3.1.2,6.1.6,9.1,1.1-.4-1.1-.9-2.3-1.4-3.4-3.2-.5-6.7-.8-10.2-1.1h0c-1.1-2.8-2.4-5.6-4-8.2,2.2-.4,4.2-1.4,5.8-2.9-.8-.8-1.7-1.6-2.5-2.4-1.5,1.3-3.3,2.1-5.3,2.3-.4-.5-.7-1-1-1.3-2.9-3.8-6.3-7.1-10.2-9.8-3.4-1-6.8-1.6-10.3-1.7h-.5c6.8,2.7,12.7,7.2,17.3,12.8-5.1-.7-10.1-1.9-15-3.5-1.6-.5-3-.8-4.4-1.3-6.7-2-13.7-2.8-20.6-2.4-3.8,2.2-7.2,4.9-10.2,8,5.5-2.3,16.6-6.1,30-2.4,1.4.4,2.9.7,4.4,1.2,5.9,1.8,12.6,3.7,18.4,3.7,1.5,2.4,2.9,4.9,4.1,7.6-1.1,0-2.2-.1-3.4-.1-28.1-.5-52,7.8-65.3,21.2,0,2.6.3,5.2.8,7.8,3.7-5.4,9.4-10.3,16.6-14.4,13.4-7.6,31.4-11.5,50.5-11.3.7,0,1.3.1,2,.1,1,2.8,1.7,5.6,2.2,8.5-12.4.6-20.3,8.2-29.5,16.4-8.2,7.3-18.2,14.6-32.9,19.1,1.4,1.7,2.9,3.2,4.6,4.7,13.8-5.5,22.9-14.2,30.7-21.1,8.9-7.9,16.4-15.5,27.5-15.8.4,3.1.4,6.3,0,9.4-1.4,17-11.4,31.6-24.8,38.8,3.4-.3,6.7-1.1,10-2.2,1.1-1,2.2-1.9,3.1-2.9,9-8.9,14.5-20.7,15.5-33.4.4-3.2.4-6.4,0-9.6.6.1,1.2.1,1.7.2,3.5.6,6.7,2.3,9.1,4.8Z"/>
</svg>